<svg xmlns="http://www.w3.org/2000/svg" xmlns:undefined="http://sodipodi.sourceforge.net/DTD/sodipodi-0.dtd" viewBox="0 0 339.19 295.78"  version="1.1">
 <metadata id="metadata8">image/svg+xml</metadata>

 <g>
  <title>Layer 1</title>
  <path d="m16.43052,241.42647c8.24143,-20.4542 6.69617,-19.43231 2.83293,-37.90389c-3.86311,-18.47158 -10.81681,-67.37459 8.75652,-107.52216c19.57341,-40.14907 44.55519,-45.28089 56.65986,-40.45041c12.10442,4.82899 21.89125,12.6774 42.75257,0.60269c20.86069,-12.07471 72.36965,-47.69464 110.48654,-26.866c38.11562,20.82864 22.31801,55.63405 35.71008,70.42534c13.39208,14.79129 44.90075,18.62524 54.68707,54.54801c9.78759,35.92277 -6.43767,114.85142 -43.26651,119.61029l-257.02962,2.04229c0,0 -19.83088,-14.03196 -11.58945,-34.48616" id="path16" fill-rule="nonzero" fill="#feefdc" stroke="null"/>
  <path d="m280.5818,147.94114c3.65859,-0.00442 12.22765,0.13415 19.62425,1.35619c3.05975,0.50562 5.85223,-2.19055 5.95687,-5.80214c0.04286,-1.47854 -0.32652,-3.22538 -1.40443,-5.24787c-4.15153,-7.79074 -12.33985,-1.15276 -12.44701,2.65637c0,0 -1.30988,-5.83163 -6.17371,-5.14763c-4.86509,0.68547 -3.56277,9.12776 -3.56277,9.12776c0,0 -1.53555,-0.48646 -2.65506,0.3022c-1.09934,0.77539 -0.62279,2.75661 0.66187,2.75513" id="path18" fill-rule="nonzero" fill="#ffffff"/>
  <path d="m277.19426,274.27488c1.08169,-1.24711 9.51712,-18.70808 15.35674,-9.72921c0,0 9.54359,-25.31805 21.63004,-20.36057c0,0 7.70547,5.14469 2.10791,17.9607c0,0 18.65602,-1.37241 18.4127,12.12908l-57.50739,0" id="path20" fill-rule="nonzero" fill="#258d8c"/>
  <path d="m306.05953,247.13334c-0.02774,0 -0.05547,-0.01474 -0.07438,-0.04275c-0.03152,-0.04717 -0.02521,-0.11498 0.01639,-0.15331c0.09455,-0.0855 2.3298,-2.0962 4.37467,-2.37923c0.05169,-0.00737 0.0996,0.03538 0.10464,0.09582c0.0063,0.06044 -0.03026,0.11498 -0.08195,0.12088c-1.99066,0.27566 -4.25743,2.31437 -4.28012,2.33501c-0.01765,0.01622 -0.03782,0.02359 -0.05925,0.02359" id="path22" fill-rule="nonzero" fill="#000000"/>
  <path d="m306.05953,248.40108c-0.02647,0 -0.05421,-0.01327 -0.07312,-0.0398c-0.03278,-0.04717 -0.02647,-0.11646 0.01387,-0.15478c0.01513,-0.01327 1.54815,-1.43285 3.50352,-2.09178c0.04917,-0.01622 0.10212,0.01769 0.11725,0.07518c0.01513,0.05749 -0.01387,0.11793 -0.0643,0.13562c-1.91754,0.64419 -3.42157,2.03724 -3.4367,2.05198c-0.01765,0.01622 -0.03908,0.02359 -0.06051,0.02359" id="path24" fill-rule="nonzero" fill="#000000"/>
  <path d="m323.16613,238.95049c-2.15456,2.99689 -2.77231,6.50677 -1.37922,7.83791c1.39183,1.33113 4.26751,-0.02064 6.42207,-3.01753c2.15456,-2.99836 2.77231,-6.50677 1.38048,-7.83791c-1.39309,-1.33113 -4.26877,0.01916 -6.42333,3.01753" id="path26" fill-rule="nonzero" fill="#258d8c"/>
  <path d="m326.45407,250.74641c-1.27584,1.77484 -1.64145,3.85188 -0.81694,4.64054c0.82451,0.78718 2.52647,-0.01179 3.80231,-1.78664c1.27458,-1.77484 1.64019,-3.85188 0.81568,-4.64054c-0.82325,-0.78718 -2.52647,0.01179 -3.80105,1.78664" id="path28" fill-rule="nonzero" fill="#258d8c"/>
  <path d="m132.40525,96.65053c7.76977,-0.72085 26.72584,-2.15811 38.17184,-0.30514c1.65405,0.26829 2.72944,-2.00923 1.63388,-3.48335c-0.79047,-1.06137 -2.18734,-1.94437 -4.6306,-2.04461c0,0 2.1533,-12.42685 -8.11394,-13.47642c-10.55216,-1.07906 -10.5862,11.96545 -10.5862,11.96545c0,0 -6.22161,-6.76917 -9.13764,1.73209c0,0 -6.53805,-3.25634 -9.45534,0.91396c-1.37418,1.96353 -0.04412,4.89851 2.118,4.69803" id="path30" fill-rule="nonzero" fill="#ffffff"/>
  <path d="m176.41167,272.18899l-26.43587,0l0.01639,-64.75966l26.43587,0l-0.01639,64.75966" id="path32" fill-rule="nonzero" fill="#49263e"/>
  <path d="m242.81464,230.96664l0,-88.71119c0,-4.21452 -2.92233,-7.633 -6.52671,-7.633l-147.10305,0c-3.60488,0 -6.52709,3.41849 -6.52709,7.633l0,88.71119l160.15685,0" id="path34" fill-rule="nonzero" fill="#49263e"/>
  <path d="m82.65779,230.96664l0,14.21643c0,2.95709 1.67145,5.35401 3.73347,5.35401l152.69041,0c2.06126,0 3.73297,-2.39692 3.73297,-5.35401l0,-14.21643l-160.15685,0" id="path36" fill-rule="nonzero" fill="#3a1f33"/>
  <path d="m239.06528,227.11476l0,-84.62198c0,-2.21855 -1.59228,-4.01698 -3.55773,-4.01698l-145.54204,0c-1.96545,0 -3.55874,1.79843 -3.55874,4.01698l0,84.62198l152.65851,0" id="path38" fill-rule="nonzero" fill="#e8f2fc"/>
  <path d="m198.96077,274.03607c0.44755,-3.06028 -1.30988,-5.54122 -3.92712,-5.54122l-63.61806,0c-2.61724,0 -5.10336,2.48095 -5.55205,5.54122l73.09723,0" id="path40" fill-rule="nonzero" fill="#3a1f33"/>
  <path d="m239.08167,250.75968l-152.69041,0c-2.16414,0 -3.92472,-2.50159 -3.92472,-5.5766l0,-102.92763c0,-4.33244 3.01373,-7.8556 6.71834,-7.8556l0,0.44666c-3.49343,0 -6.33571,3.32415 -6.33571,7.40894l0,102.92763c0,2.82884 1.58913,5.12994 3.5421,5.12994l152.69041,0l0,0.44666" id="path42" fill-rule="nonzero" fill="#21111d"/>
  <path d="m232.62809,240.88159l-0.3114,-0.26092l3.64598,-5.93334l0.31014,0.26092l-3.64472,5.93334" id="path44" fill-rule="nonzero" fill="#21111d"/>
  <path d="m232.62556,243.68979l-0.30761,-0.26534l3.64598,-5.77266l0.30761,0.26534l-3.64598,5.77266" id="path46" fill-rule="nonzero" fill="#21111d"/>
  <path d="m156.50376,255.74664l-0.33283,-0.22259l1.81416,-3.71037l0.33157,0.22112l-1.8129,3.71184" id="path48" fill-rule="nonzero" fill="#21111d"/>
  <path d="m156.80633,257.87969l-0.33031,-0.22701l1.64019,-3.26813l0.33031,0.22701l-1.64019,3.26813" id="path50" fill-rule="nonzero" fill="#21111d"/>
  <path d="m157.58167,134.08292c0,0 1.22541,-5.35106 2.34366,-5.91123c1.11825,-0.56164 2.36636,0.37738 2.36636,0.37738c0,0 1.19768,-1.91046 2.0121,-1.72767c0.81568,0.18132 1.01487,1.03483 1.01487,1.03483c0,0 1.44099,0.17837 1.58724,1.56404c0,0 1.13338,0.32136 1.11951,1.40926c0,0 0.58497,0.31104 0.54715,1.6289c0,0 -1.94654,4.4489 -4.80584,6.02474c-2.8593,1.57584 -6.18505,-4.40025 -6.18505,-4.40025" id="path52" fill-rule="nonzero" fill="#fe9f73"/>
  <path d="m131.64378,227.11476l0.34039,-37.87167l-0.72869,-4.8646l-17.67317,7.41631c0,0 0.54425,16.00897 1.69074,35.31997l16.37073,0" id="path54" fill-rule="nonzero" fill="#3aa1c9"/>
  <path d="m118.07297,227.11476l1.98613,-26.71404l3.35879,-19.49821l-22.84764,11.36696c0,0 -0.16339,15.72888 0.11435,34.8453l17.38837,0" id="path56" fill-rule="nonzero" fill="#4cb7d8"/>
  <path d="m152.68506,107.19051l18.58668,36.20591l-1.54689,1.37536l-14.71882,-31.90737l-2.32097,-5.6739" id="path58" fill-rule="nonzero" fill="#683d46"/>
  <path d="m162.15553,128.43408c0,0 0.82198,-0.99208 1.31492,-1.28838c0.4942,-0.2963 3.43544,6.03063 3.43544,6.03063l0.42612,1.56257c0,0 -0.37695,0.82698 -0.62027,0.79308c-0.24332,-0.0339 -0.98083,-0.69136 -0.98083,-0.69136l-0.19163,-0.86384l-0.29627,-0.09582l-0.38704,-0.41865l-0.19289,-0.68399l-0.41099,0.2167l-0.58623,-0.27124l-0.26979,-0.63829l-0.11599,-0.06191l-1.74483,-3.27845l0.62027,-0.31104" id="path60" fill-rule="nonzero" fill="#fe9f73"/>
  <path d="m163.22714,132.1415c-0.25971,0 -0.5585,-0.20933 -0.86863,-0.4275c-0.21684,-0.15183 -0.44125,-0.30957 -0.67322,-0.4157c-0.68583,-0.31694 -0.99974,-0.17837 -1.00227,-0.17689c-0.04917,0.02211 -0.10464,-0.00442 -0.12481,-0.06191c-0.02017,-0.05602 0.00252,-0.12088 0.05043,-0.14446c0.01513,-0.00737 0.37569,-0.17984 1.14725,0.17542c0.24584,0.11351 0.47655,0.27566 0.70096,0.43192c0.48537,0.34052 0.79425,0.53511 1.00101,0.26829c0.18406,-0.23881 0.26475,-0.52037 0.23954,-0.83878c-0.05295,-0.6781 -0.6001,-1.54193 -1.46369,-2.31437c-1.06152,-0.94933 -1.99571,-0.48056 -2.03479,-0.45993c-0.04791,0.02506 -0.1059,0 -0.12733,-0.05602c-0.02143,-0.05602 0,-0.12235 0.04791,-0.14741c0.04412,-0.02359 1.07413,-0.5469 2.2302,0.48646c0.91906,0.81961 1.47882,1.72177 1.53807,2.47063c0.03026,0.38327 -0.06682,0.72232 -0.28744,1.00977c-0.11094,0.14299 -0.23701,0.20048 -0.37317,0.20048" id="path62" fill-rule="nonzero" fill="#f07162"/>
  <path d="m163.55114,130.23841c-0.02269,0 -0.04539,-0.01032 -0.0643,-0.02948c-0.03908,-0.04128 -0.0416,-0.11203 -0.0063,-0.15773l1.76626,-2.27015c0.03656,-0.0457 0.09581,-0.04865 0.13616,-0.00737c0.03908,0.04128 0.0416,0.11203 0.0063,0.15773l-1.76752,2.27015c-0.01891,0.02506 -0.04412,0.03685 -0.0706,0.03685" id="path64" fill-rule="nonzero" fill="#f07162"/>
  <path d="m165.48507,134.06523c-0.13994,0 -0.26853,-0.05307 -0.37947,-0.15773c-0.19415,-0.12677 -0.55471,-0.54395 -0.44125,-1.14687c0.01135,-0.06044 0.06177,-0.09729 0.11472,-0.0855c0.05169,0.01474 0.08447,0.07371 0.07312,0.13415c-0.1122,0.58965 0.34039,0.90069 0.3593,0.91396c0.11599,0.10614 0.23449,0.13857 0.37569,0.10614c0.94806,-0.2108 2.34114,-3.02637 2.35501,-3.05586c0.02647,-0.05307 0.08573,-0.07076 0.13111,-0.0398c0.04539,0.02948 0.06177,0.09877 0.0353,0.15183c-0.05925,0.1194 -1.45234,2.9335 -2.48612,3.16347c-0.04665,0.01032 -0.09203,0.01622 -0.13742,0.01622" id="path66" fill-rule="nonzero" fill="#f07162"/>
  <path d="m164.20293,133.08051c-0.21054,0 -0.39208,-0.07076 -0.54085,-0.20933c-0.33031,-0.31104 -0.37317,-0.84909 -0.37443,-0.87121c-0.00378,-0.06191 0.0353,-0.11646 0.08699,-0.12088c0.05043,-0.00737 0.0996,0.0398 0.10338,0.10171c0.00126,0.00442 0.03908,0.4673 0.30509,0.71642c0.14372,0.13415 0.33283,0.18427 0.56228,0.14741c0.69591,-0.11203 2.0247,-2.55023 2.4773,-3.47893c0.02647,-0.05454 0.08447,-0.07371 0.12985,-0.04275c0.04665,0.03096 0.06304,0.09877 0.03656,0.15331c-0.06808,0.14004 -1.68683,3.4406 -2.6185,3.58949c-0.05799,0.01032 -0.11346,0.01474 -0.16767,0.01474" id="path68" fill-rule="nonzero" fill="#f07162"/>
  <path d="m155.75616,132.85202l0.69087,-1.01272c0,0 6.1258,2.01365 8.34339,7.88655l-0.97075,1.52866c0,0 -4.47931,-6.53626 -8.06352,-8.4025" id="path70" fill-rule="nonzero" fill="#e2f2f1"/>
  <path d="m133.8891,194.62511l0.1122,-0.171l-0.58749,-38.53945c0,0 10.84086,8.50126 14.08972,8.66489c3.24886,0.16215 16.68048,-23.15109 16.68048,-23.15109c-2.8303,-7.59763 -8.79095,-8.65015 -8.79095,-8.65015l-11.09175,14.21791l-12.99542,-13.78304c-1.73348,-1.23089 -15.05278,-1.49623 -15.05278,-1.49623c0,0 -15.16095,-0.40391 -16.89367,0.82551c-1.73272,1.23089 -8.10651,21.49123 -9.09654,30.67943c-0.99016,9.18968 0,15.14071 6.0025,16.22566l2.18343,0.05454l0.16805,15.12302c0,0 12.09779,3.1841 35.27221,0" id="path72" fill-rule="nonzero" fill="#ef3a4c"/>
  <path d="m128.72901,182.19826l-13.16146,0c-0.8332,0 -1.50869,-0.79013 -1.50869,-1.76452l0,-20.40332c0,-0.97439 0.67549,-1.76452 1.50869,-1.76452l13.16146,0c0.83333,0 1.50907,0.79013 1.50907,1.76452l0,20.40332c0,0.97439 -0.67574,1.76452 -1.50907,1.76452" id="path74" fill-rule="nonzero" fill="#49263e"/>
  <path d="m126.25549,157.36078l-7.53629,0c-0.42726,0 -0.77357,0.40538 -0.77357,0.90511l9.08343,0c0,-0.49973 -0.34632,-0.90511 -0.77357,-0.90511" id="path76" fill-rule="nonzero" fill="#e2f2f1"/>
  <path d="m130.62512,170.58808c1.74861,-1.80138 -0.08321,-2.10357 -0.08321,-2.10357c0.8535,-1.07906 0.65431,-1.58321 0.34165,-1.81464c-0.22945,-0.171 -0.51815,-0.18869 -0.77156,-0.07371c-0.80307,0.36411 -3.25352,1.48886 -4.75062,2.29668c-1.06429,-0.08845 -0.72491,-2.18612 -0.24874,-3.26076c0.24521,-0.55427 0.26223,-1.46823 -0.89284,-0.5469c-0.94377,0.75328 -2.36194,3.23128 -2.36194,3.23128l-5.93178,-0.6663l0.88376,9.55821c0,0 6.77129,-0.11056 7.79145,-0.1194c1.02042,-0.00884 4.43657,-1.36946 5.4691,-2.41903c1.87216,-1.90604 0.69465,-2.00333 0.69465,-2.00333c1.78643,-2.19349 -0.13994,-2.07851 -0.13994,-2.07851" id="path78" fill-rule="nonzero" fill="#fe9f73"/>
  <path d="m128.40122,170.06181c-0.05156,0.00442 -0.10212,-0.02948 -0.12292,-0.08845c-0.02584,-0.07223 0.00403,-0.15626 0.06657,-0.18721c0.87834,-0.42307 2.1151,-1.41073 2.1277,-1.42105c0.05547,-0.04422 0.13237,-0.02801 0.1702,0.03833c0.03908,0.06486 0.02395,0.15478 -0.03152,0.19901c-0.05169,0.04128 -1.2708,1.0142 -2.17284,1.44906c-0.01223,0.0059 -0.02471,0.00884 -0.03719,0.01032" id="path80" fill-rule="nonzero" fill="#f07162"/>
  <path d="m128.52276,171.87351c-0.05774,0.00442 -0.11233,-0.03833 -0.12796,-0.10614c-0.0174,-0.07665 0.02131,-0.15478 0.08674,-0.17542c1.11611,-0.35084 2.06416,-1.11444 2.07425,-1.12181c0.05547,-0.0457 0.13237,-0.02948 0.1702,0.03538c0.03908,0.06486 0.02521,0.15478 -0.03026,0.20048c-0.04034,0.03243 -0.99218,0.79897 -2.15065,1.16308l-0.02231,0.00442" id="path82" fill-rule="nonzero" fill="#f07162"/>
  <path d="m128.93324,173.9137c-0.05673,0.00442 -0.10968,-0.03685 -0.12733,-0.10171c-0.01891,-0.07665 0.01765,-0.15626 0.08321,-0.17837c0.95562,-0.3361 1.79399,-1.07316 1.80156,-1.08201c0.05421,-0.04717 0.13111,-0.03538 0.17272,0.02801c0.04034,0.06339 0.03026,0.15331 -0.02395,0.20195c-0.0353,0.03096 -0.8825,0.77686 -1.88098,1.12623l-0.02521,0.0059" id="path84" fill-rule="nonzero" fill="#f07162"/>
  <path d="m101.77259,165.8532l-0.2471,-0.342l2.41464,-2.3866l0.92171,-13.0902l0.38149,0.03685l-0.93482,13.27594l-2.53592,2.50601" id="path86" fill-rule="nonzero" fill="#21111d"/>
  <path d="m98.44481,179.72616l-2.20852,-0.05602c-2.94603,-0.53363 -4.83471,-2.24067 -5.77381,-5.21839c-0.8148,-2.58414 -0.9386,-6.16036 -0.38943,-11.25787l0.37973,0.05602c-1.11913,10.38814 0.56984,15.01688 5.82953,15.97506l2.17082,0.05454l-0.00832,0.44666" id="path88" fill-rule="nonzero" fill="#21111d"/>
  <path d="m119.67167,165.36821l1.1915,0c0,0 1.26865,9.53904 -0.46407,13.91719l-1.48159,0c0,0 1.72844,-8.94792 0.75416,-13.91719" id="path90" fill-rule="nonzero" fill="#e2f2f1"/>
  <path d="m113.4406,163.93241l5.96846,0.44813c0,0 1.20663,4.4489 -0.24357,13.472c-0.14082,0.87563 -0.43722,2.37334 -0.43722,2.37334c0,0 -6.06037,0.56459 -7.01158,-1.73652c-0.59733,-1.44611 0.70852,-7.68902 0.70852,-7.68902l1.01538,-6.86793" id="path92" fill-rule="nonzero" fill="#ef3a4c"/>
  <path d="m118.87566,180.45585l-20.43249,-0.72969l0.0116,-0.44666l20.12462,0.7179c0.28757,-1.39305 2.13035,-10.76257 0.69377,-15.4031l-15.16095,-1.13507l0.02433,-0.44666l15.40679,1.15276l0.044,0.13415c1.67385,5.07393 -0.57715,15.53872 -0.67372,15.98243l-0.03795,0.17395" id="path94" fill-rule="nonzero" fill="#21111d"/>
  <path d="m144.43496,150.79946l-0.3177,-3.69562l-12.58317,-13.3467c-0.92284,-0.97882 -2.71557,-0.99208 -2.73322,-0.99208l0,-0.44666l0,0c0.08195,0 1.95789,0.01179 2.99041,1.10707l12.69285,13.46316l0.33157,3.86662l-0.38074,0.04422" id="path96" fill-rule="nonzero" fill="#21111d"/>
  <path d="m144.44253,147.14659l-0.28366,-0.30072l11.16235,-14.30783l0.10212,0.01916c0.05925,0.01179 5.96065,1.21762 8.93467,8.7784l-0.34796,0.18721c-2.67523,-6.8016 -7.77229,-8.30815 -8.54763,-8.50126l-11.01989,14.12504" id="path98" fill-rule="nonzero" fill="#21111d"/>
  <path d="m123.44625,132.02357c-3.66237,-0.23733 -7.19312,-0.30662 -7.19312,-0.30662c0,0 -2.93532,-0.07813 -6.37,-0.06191c-0.00025,0.02359 -0.00151,0.04717 -0.00151,0.07076c0,4.38257 3.03794,7.93373 6.78553,7.93373c3.66237,0 6.64521,-3.39195 6.7791,-7.63595" id="path100" fill-rule="nonzero" fill="#e2f2f1"/>
  <path d="m119.40289,196.17736c-0.11384,0 -0.22542,-0.00147 -0.33548,-0.00295l0.00366,-0.44666c4.78377,0.05896 13.314,-1.11591 14.62514,-1.30018l-0.47529,-42.21886l0.38326,-0.0059l0.47907,42.61982l-0.1702,0.02359c-0.09455,0.01474 -9.26144,1.33113 -14.51017,1.33113" id="path102" fill-rule="nonzero" fill="#21111d"/>
  <path d="m112.61975,140.0767c-1.92675,-1.40336 -3.32551,-3.57769 -3.93859,-6.12203l0.36838,-0.12088c0.58711,2.43672 1.927,4.51818 3.77281,5.86406l-0.2026,0.37885" id="path104" fill-rule="nonzero" fill="#21111d"/>
  <path d="m114.09025,115.65049c0,0 2.70322,-1.3444 5.10311,-0.37885c1.38968,0.55869 2.31278,2.10357 2.31278,3.82092l0,1.6805l-7.39723,-3.69415c0,0 -1.16994,0.64714 -1.07602,0.45108c0.0938,-0.19606 1.05736,-1.87951 1.05736,-1.87951" id="path106" fill-rule="nonzero" fill="#fe9f73"/>
  <path d="m121.50551,118.90388l0,7.0861c0,0 0.09027,2.53107 -1.80446,2.848l0.35376,3.37869c0.13149,1.25448 -0.51059,2.45736 -1.54198,2.83916c-0.50428,0.18574 -1.10627,0.32283 -1.78895,0.32283c-2.16527,0 -3.33824,-1.89867 -3.51865,-2.848c-0.18041,-0.94933 0.36094,-5.48521 0.36094,-5.48521l-0.06594,-2.23035l0.24634,-8.63541l7.75893,2.72418" id="path108" fill-rule="nonzero" fill="#fe9f73"/>
  <path d="m116.27771,122.24572c-0.02244,0 -0.04501,-0.01032 -0.06241,-0.02948c-0.03593,-0.04128 -0.03719,-0.10761 -0.00265,-0.15036c0.01235,-0.01474 1.25327,-1.49918 2.38716,-0.43044c0.03883,0.03685 0.04501,0.10319 0.01374,0.14889c-0.03127,0.04422 -0.088,0.05159 -0.12695,0.01474c-1.00466,-0.94639 -2.09783,0.35821 -2.14372,0.41275c-0.01778,0.02211 -0.04148,0.0339 -0.06518,0.0339" id="path110" fill-rule="nonzero" fill="#21111d"/>
  <path d="m119.99681,121.61184c-0.02521,0 -0.0503,-0.01179 -0.0682,-0.03685c-0.03253,-0.04275 -0.02862,-0.11056 0.00908,-0.14741c0.03631,-0.03685 0.897,-0.89774 1.44099,-0.35232c0.03795,0.03685 0.04223,0.10466 0.00983,0.14889c-0.0324,0.04422 -0.08938,0.04865 -0.12721,0.01032c-0.42625,-0.42602 -1.19768,0.34347 -1.20537,0.35232c-0.01715,0.01622 -0.0382,0.02506 -0.05913,0.02506" id="path112" fill-rule="nonzero" fill="#21111d"/>
  <path d="m118.10221,122.67174c0,0.17395 -0.12115,0.31546 -0.27067,0.31546c-0.14939,0 -0.27067,-0.14152 -0.27067,-0.31546c0,-0.17542 0.12128,-0.31694 0.27067,-0.31694c0.14952,0 0.27067,0.14152 0.27067,0.31694" id="path114" fill-rule="nonzero" fill="#000000"/>
  <path d="m120.97916,122.3548c0,0.17542 -0.12115,0.31694 -0.27067,0.31694c-0.14939,0 -0.27067,-0.14152 -0.27067,-0.31694c0,-0.17542 0.12128,-0.31694 0.27067,-0.31694c0.14952,0 0.27067,0.14152 0.27067,0.31694" id="path116" fill-rule="nonzero" fill="#000000"/>
  <path d="m114.09025,115.53993c0,0 -2.29185,-0.12825 -2.87329,2.21561c-0.58131,2.34533 0.40948,3.58359 0.42952,4.28232c0.02005,0.69873 -0.38527,5.4115 2.44376,5.05919l0.76399,-7.78189l-0.98462,-3.0986l0.22062,-0.67662" id="path118" fill-rule="nonzero" fill="#21111d"/>
  <path d="m115.86672,122.56118c0,1.04957 -0.72705,1.89867 -1.62392,1.89867c-0.89687,0 -1.62392,-0.84909 -1.62392,-1.89867c0,-1.0481 0.72705,-1.89867 1.62392,-1.89867c0.89687,0 1.62392,0.85057 1.62392,1.89867" id="path120" fill-rule="nonzero" fill="#fe9f73"/>
  <path d="m114.12265,123.72573c-0.33737,0 -0.56266,-0.29777 -0.63679,-0.59407c-0.08775,-0.34937 0.01273,-0.68989 0.25618,-0.86678c0.35968,-0.26092 0.6857,-0.09434 0.85275,0.0339c-0.0701,-0.21522 -0.18003,-0.37148 -0.32791,-0.4673c-0.31997,-0.2049 -0.71671,-0.05602 -0.72075,-0.05454c-0.0237,0.01032 -0.04917,-0.00442 -0.05698,-0.03243c-0.00794,-0.02801 0.00479,-0.05749 0.02849,-0.06634c0.01765,-0.00737 0.43722,-0.16658 0.79211,0.06044c0.20487,0.13267 0.3443,0.36558 0.4144,0.69284l0.03921,0.18279l-0.11485,-0.13267c-0.01626,-0.01916 -0.40242,-0.45845 -0.85892,-0.12677c-0.25265,0.18279 -0.27496,0.51742 -0.21722,0.74738c0.06001,0.24028 0.23979,0.51742 0.54992,0.51742l0.00933,0c0.02458,0 0.04476,0.02359 0.04513,0.05159c0.00038,0.02948 -0.01954,0.05307 -0.0445,0.05307l-0.00958,0.00147" id="path122" fill-rule="nonzero" fill="#f07162"/>
  <path d="m115.30873,126.68725c0,0 0.12708,4.2381 4.65329,4.64201l-0.26097,-2.49127c0,0 -2.93544,0.68989 -4.39232,-2.15074" id="path124" fill-rule="nonzero" fill="#f07162"/>
  <path d="m121.81968,124.7989c0,0 0.59001,5.07098 -2.29059,5.2523c-4.12165,0.25797 -4.52079,-2.49274 -4.76574,-4.74372l-0.04135,-4.64496l0.13225,-1.34735l0,0c0.29135,0.38475 0.46936,0.86826 0.50857,1.37978c0.08535,1.11444 0.29639,4.11575 0.53416,4.24842c0.33573,0.18721 5.28125,-0.63387 5.9227,-0.14446" id="path126" fill-rule="nonzero" fill="#21111d"/>
  <path d="m119.05695,124.80627c-0.01891,0 -0.03656,-0.01474 -0.04286,-0.03685c-0.00782,-0.02801 0.00504,-0.05749 0.02874,-0.06634l0.90431,-0.34937l-0.2858,-2.48832c-0.00328,-0.02948 0.01412,-0.05602 0.0387,-0.05896c0.02496,-0.0059 0.0474,0.01622 0.05081,0.04422l0.29564,2.57529l-0.97529,0.37738l-0.01425,0.00295" id="path128" fill-rule="nonzero" fill="#f07162"/>
  <path d="m113.4991,127.63363l0.31455,-3.5718l0.75844,0.09877l0,3.57622l-1.07299,-0.10319" id="path130" fill-rule="nonzero" fill="#fe9f73"/>
  <path d="m114.51423,115.46918c0,0 -0.53126,1.48297 0.34001,3.95654c0.8714,2.4721 -2.23537,-0.9228 -2.23537,-0.9228c0,0 0.21558,-3.61897 1.89535,-3.03374" id="path132" fill-rule="nonzero" fill="#21111d"/>
  <path d="m118.00753,125.88975c0.72907,1.10117 1.72516,0.57933 1.73524,0.57343c0.03139,-0.01769 0.04501,-0.06044 0.03051,-0.09729c-0.01462,-0.03685 -0.05182,-0.05307 -0.08321,-0.03538c-0.03782,0.01916 -0.91666,0.47614 -1.58282,-0.53068c-0.01223,-0.01769 -0.02421,-0.03685 -0.03606,-0.05602c-0.01853,-0.03096 -0.05963,-0.0398 -0.08775,-0.01622c-0.02799,0.02359 -0.03417,0.06928 -0.01387,0.10319c0.01248,0.01916 0.02521,0.0398 0.03795,0.05896" id="path134" fill-rule="nonzero" fill="#f07162"/>
  <path d="m166.82269,135.61305l-0.01639,-0.00147c-0.52572,-0.10466 -0.89889,-0.34494 -1.11069,-0.71348c-0.25845,-0.45108 -0.17272,-0.92575 -0.16894,-0.94491c0.01135,-0.06044 0.06177,-0.09877 0.11472,-0.08402c0.05043,0.01179 0.08321,0.07223 0.07186,0.13267c0,0.00295 -0.0706,0.40391 0.14246,0.77539c0.18154,0.31399 0.51311,0.52037 0.98336,0.61471c0.05169,0.01032 0.08699,0.06781 0.07816,0.12825c-0.00756,0.05454 -0.04791,0.09287 -0.09455,0.09287" id="path136" fill-rule="nonzero" fill="#f07162"/>
  <path d="m239.25691,227.33883l-152.85026,0l0,-0.44813l152.46827,0l0,-84.39791c0,-2.09178 -1.51159,-3.79292 -3.36736,-3.79292l0,-0.44813c2.06757,0 3.74936,1.90162 3.74936,4.24105l0,84.84605" id="path138" fill-rule="nonzero" fill="#21111d"/>
  <path d="m114.85424,119.42572c0,0 6.8966,-0.47762 7.32171,-2.36744c0.42511,-1.88835 -1.19679,-1.93847 -1.19679,-1.93847c0,0 0.30396,-2.68438 -1.7795,-1.88982c-2.08333,0.79603 -5.94287,0.69136 -7.02797,2.94972c-1.08522,2.25688 2.68254,3.24602 2.68254,3.24602" id="path140" fill-rule="nonzero" fill="#21111d"/>
  <path d="m142.94228,197.86081l-1.40695,1.20436l-1.36157,-5.43067l2.76852,4.22631zm-2.39283,2.04756l-1.66162,1.42105c-0.25592,0.21817 -0.3114,0.63829 -0.12481,0.93754c0.1122,0.17984 0.28744,0.27566 0.46394,0.27566c0.11725,0 0.23575,-0.04275 0.33913,-0.12972l1.32627,-1.13655l1.16868,4.65823c0.07312,0.29335 0.30131,0.48351 0.54967,0.48351c0.05421,0 0.10842,-0.00884 0.16263,-0.02801c0.30383,-0.10319 0.47781,-0.47762 0.3883,-0.83288l-1.28341,-5.12257l1.76248,-1.50803l2.08648,3.1841c0.19289,0.29482 0.55345,0.35084 0.80433,0.1253c0.25214,-0.22554 0.30005,-0.64714 0.10716,-0.94049l-2.07135,-3.16199l1.12077,-0.95818c0.25592,-0.21817 0.3114,-0.63829 0.12355,-0.93754c-0.18659,-0.29925 -0.54589,-0.36411 -0.80181,-0.14446l-1.14094,0.97439l-3.87291,-5.91123c-0.24206,-0.37 -0.65935,-0.48204 -1.01487,-0.26976c-0.35552,0.20933 -0.52572,0.66925 -0.41351,1.11591l1.98184,7.90572" id="path142" fill-rule="nonzero" fill="#f75553"/>
  <path d="m149.5005,181.80762c0.01513,0.01327 0.04917,0.04717 0.09581,0.12383c0.41099,0.67662 0.17776,2.50601 -0.3114,4.51966l-0.79551,-3.1841c0.56102,-1.15424 0.86233,-1.42548 1.01109,-1.45938l0.00001,-0.00001zm4.16161,5.15648c0.4652,0.0855 0.82577,0.44666 1.10312,1.10707c0.27988,0.6663 0.31266,1.32818 0.0996,2.02102c-0.56732,1.83823 -2.64497,3.33152 -3.67876,3.97866l-1.23172,-4.93536c0.89258,-0.94786 2.53907,-2.38808 3.70775,-2.17138l0.00001,-0.00001zm-6.94274,-0.44076c0.40469,0 0.51311,-0.27271 0.87115,-1.17635c0.04665,-0.11793 0.09203,-0.23144 0.13616,-0.342l0.92788,3.71331c-0.01261,0.0398 -0.02395,0.07813 -0.03656,0.11646c-0.01891,0.04422 -0.03278,0.08992 -0.04286,0.13709c-0.22945,0.72527 -0.47151,1.42105 -0.70726,2.04313c-0.12859,0.33905 0.00126,0.73559 0.29122,0.88595c0.07564,0.0398 0.15507,0.05749 0.23197,0.05749c0.22062,0 0.4299,-0.14889 0.52572,-0.39801c0.06304,-0.1651 0.15507,-0.41275 0.26601,-0.72527l1.35148,5.41298c0.07312,0.29335 0.30131,0.48351 0.55093,0.48351c0.05295,0 0.10716,-0.00884 0.16011,-0.02653c0.30509,-0.10466 0.47907,-0.47762 0.39082,-0.83288l-0.12103,-0.48351c1.0653,-0.63977 3.68002,-2.41609 4.42762,-4.83807c0.32274,-1.04073 0.27231,-2.07409 -0.1475,-3.07207c-0.5585,-1.32818 -1.37292,-1.73357 -1.95663,-1.84118c-1.19263,-0.2167 -2.49621,0.57049 -3.49343,1.40042c0.56228,-2.24951 0.90645,-4.69803 0.18785,-5.88322c-0.40091,-0.65893 -0.87619,-0.712 -1.12456,-0.68547c-0.50933,0.05454 -0.97705,0.52479 -1.41578,1.22057c-0.1412,-0.13709 -0.33661,-0.19311 -0.52698,-0.12825c-0.30383,0.10466 -0.47907,0.47762 -0.38956,0.83288l0.1765,0.70758c-0.24206,0.53216 -0.47655,1.10559 -0.70474,1.68197c-0.09329,0.23586 -0.19667,0.49825 -0.24836,0.61176c-0.09581,0.1194 -0.15381,0.28008 -0.15381,0.45698c0,0.37 0.25719,0.67073 0.57362,0.67073" id="path144" fill-rule="nonzero" fill="#258d8c"/>
  <path d="m163.94448,194.19319c0.62405,0 1.33131,-0.08697 2.13439,-0.28451c0.31014,-0.07665 0.50933,-0.43192 0.44377,-0.79455c-0.06556,-0.36263 -0.36813,-0.59555 -0.67952,-0.51889c-2.68153,0.65746 -4.3835,0.05307 -5.05798,-1.79843c-1.11447,-3.06175 0.76777,-8.25951 2.09783,-9.3194c0.56984,-0.45403 1.10564,-0.61029 1.59354,-0.46435c0.91906,0.27419 1.46999,1.51245 1.48134,1.53751c0.14246,0.3302 0.48663,0.46287 0.7703,0.29777c0.2824,-0.1651 0.39839,-0.56901 0.25592,-0.90069c-0.03152,-0.07223 -0.7829,-1.79843 -2.21381,-2.23329c-0.82325,-0.2506 -1.67675,-0.02948 -2.53403,0.65304c-1.84946,1.4756 -3.78592,7.44432 -2.50756,10.95568c0.50933,1.39599 1.65279,2.87012 4.21582,2.87012" id="path146" fill-rule="nonzero" fill="#397fa1"/>
  <path d="m155.25187,204.0079l-12.19487,9.78817l-0.49798,5.81983l-2.50756,-4.12754l-3.0774,2.57971c-0.25719,0.2167 -0.31644,0.63535 -0.13111,0.93754c0.18406,0.30072 0.54337,0.37 0.80055,0.15331l2.13943,-1.79401l3.61446,5.94661l0.74886,-8.76218l11.75614,-9.43438c0.26097,-0.20933 0.32779,-0.62798 0.1475,-0.93312c-0.17902,-0.30662 -0.5358,-0.38327 -0.79803,-0.17395" id="path148" fill-rule="nonzero" fill="#61a3c5"/>
  <path d="m172.30301,208.29759c-0.11977,-0.34347 -0.45386,-0.50857 -0.7476,-0.37l-10.60133,5.03855c-0.29375,0.13857 -0.43495,0.53068 -0.31518,0.87415c0.09077,0.26092 0.30509,0.41865 0.53202,0.41865c0.07186,0 0.14498,-0.01622 0.21558,-0.05012l10.60133,-5.03708c0.29375,-0.14004 0.43495,-0.53068 0.31518,-0.87415" id="path150" fill-rule="nonzero" fill="#f75553"/>
  <path d="m165.69813,206.56108c-0.53202,0 -0.96318,0.50415 -0.96318,1.1277c0,0.62208 0.43116,1.12623 0.96318,1.12623c0.53202,0 0.96444,-0.50415 0.96444,-1.12623c0,-0.62355 -0.43242,-1.1277 -0.96444,-1.1277" id="path152" fill-rule="nonzero" fill="#f75553"/>
  <path d="m167.62576,213.58822c-0.53202,0 -0.96318,0.50415 -0.96318,1.12623c0,0.62208 0.43116,1.12623 0.96318,1.12623c0.53202,0 0.96444,-0.50415 0.96444,-1.12623c0,-0.62208 -0.43242,-1.12623 -0.96444,-1.12623" id="path154" fill-rule="nonzero" fill="#f75553"/>
  <path d="m162.5867,175.19471c0.11094,0.1253 0.25466,0.18721 0.39839,0.18721c0.15002,0 0.30005,-0.06928 0.41351,-0.2049l2.90216,-3.5261l2.90342,3.5261c0.1122,0.13562 0.26223,0.2049 0.41351,0.2049c0.14246,0 0.28618,-0.06191 0.39712,-0.18721c0.22945,-0.25797 0.23575,-0.68252 0.01639,-0.94933l-2.93368,-3.56148l2.93368,-3.56148c0.21936,-0.26682 0.21306,-0.69136 -0.01639,-0.94933c-0.22819,-0.2565 -0.59127,-0.24913 -0.81064,0.01769l-2.90342,3.5261l-2.90216,-3.5261c-0.22062,-0.26682 -0.58371,-0.27419 -0.8119,-0.01769c-0.22819,0.25797 -0.23575,0.68252 -0.01513,0.94933l2.93242,3.56148l-2.93242,3.56148c-0.22062,0.26682 -0.21306,0.69136 0.01513,0.94933" id="path156" fill-rule="nonzero" fill="#fe9f73"/>
  <path d="m52.07178,214.85007l-8.02166,0l-3.23133,54.27718l14.48432,0l-3.23133,-54.27718" id="path158" fill-rule="nonzero" fill="#258d8c"/>
  <path d="m52.58426,215.94092l-9.11734,0c-0.66023,0 -1.19541,-0.6265 -1.19541,-1.39747l0,-5.16532l11.50816,0l0,5.16532c0,0.77097 -0.5353,1.39747 -1.19541,1.39747" id="path160" fill-rule="nonzero" fill="#f99247"/>
  <path d="m50.3499,216.16498l-6.26435,0c-1.10577,0 -2.00541,-1.05252 -2.00541,-2.34533l0,-4.44153l0.38263,0l0,4.44153c0,1.04663 0.72794,1.8972 1.62279,1.8972l6.26435,0l0,0.44813" id="path162" fill-rule="nonzero" fill="#21111d"/>
  <path d="m72.31718,184.45514c0,15.74215 -10.91386,28.50215 -24.37663,28.50215c-13.46289,0 -24.37663,-12.76 -24.37663,-28.50215c0,-15.74215 10.91373,-28.50362 24.37663,-28.50362c13.46277,0 24.37663,12.76148 24.37663,28.50362" id="path164" fill-rule="nonzero" fill="#fecc86"/>
  <path d="m68.97251,184.45514c0,13.58109 -9.41639,24.5913 -21.03196,24.5913c-11.6157,0 -21.03196,-11.01022 -21.03196,-24.5913c0,-13.58256 9.41626,-24.59278 21.03196,-24.59278c11.61557,0 21.03196,11.01022 21.03196,24.59278" id="path166" fill-rule="nonzero" fill="#e2f2f1"/>
  <path d="m47.94055,213.18136c-13.54673,0 -24.568,-12.88678 -24.568,-28.72622c0,-15.84092 11.02127,-28.72769 24.568,-28.72769c6.35084,0 12.37629,2.82442 16.96692,7.95141l-0.26425,0.32283c-4.51902,-5.04592 -10.45093,-7.82611 -16.70267,-7.82611c-13.33581,0 -24.18538,12.68629 -24.18538,28.27956c0,15.59326 10.84956,28.27956 24.18538,28.27956c6.18997,0 12.07888,-2.73302 16.58202,-7.69344l0.26235,0.32578c-4.57437,5.03855 -10.55657,7.81432 -16.84438,7.81432" id="path168" fill-rule="nonzero" fill="#21111d"/>
  <path d="m62.65357,179.80134c-1.47327,1.72325 -5.16867,0.19458 -8.25376,-3.41259c-3.08509,-3.60718 -4.39156,-7.92783 -2.91817,-9.65108c1.47327,-1.72177 5.16867,-0.19458 8.25376,3.41259c3.08509,3.60718 4.39156,7.92783 2.91817,9.65108" id="path170" fill-rule="nonzero" fill="#f3fffe"/>
  <path d="m41.12817,267.15044l-0.38149,-0.03096l3.14812,-51.19479l0.38149,0.03243l-3.14812,51.19331" id="path172" fill-rule="nonzero" fill="#21111d"/>
  <path d="m34.99644,169.47806l-0.3027,-0.27271c0.02937,-0.04422 2.986,-4.45332 7.48094,-5.58397l0.08043,0.43781c-4.355,1.09527 -7.23006,5.37612 -7.25868,5.41887" id="path174" fill-rule="nonzero" fill="#21111d"/>
  <path d="m36.19412,172.22877l-0.3027,-0.27271c0.02937,-0.04422 2.986,-4.45332 7.48094,-5.58397l0.08031,0.43781c-4.35488,1.09527 -7.22993,5.37612 -7.25855,5.41887" id="path176" fill-rule="nonzero" fill="#21111d"/>
  <path d="m76.20043,261.8952l-53.99769,0c-0.67284,0 -1.21823,0.63829 -1.21823,1.424l0,10.71687l55.21592,0l0,-12.14087" id="path178" fill-rule="nonzero" fill="#f99247"/>
  <path d="m26.00151,267.96563l-0.68028,0l0,-6.07043l0.68028,0l0,6.07043" id="path180" fill-rule="nonzero" fill="#fecc86"/>
  <path d="m33.10197,267.96563l-0.68028,0l0,-6.07043l0.68028,0l0,6.07043" id="path182" fill-rule="nonzero" fill="#fecc86"/>
  <path d="m29.57298,265.5805l-0.68028,0l0,-3.68531l0.68028,0l0,3.68531" id="path184" fill-rule="nonzero" fill="#fecc86"/>
  <path d="m40.8614,267.96563l-0.68028,0l0,-6.07043l0.68028,0l0,6.07043" id="path186" fill-rule="nonzero" fill="#fecc86"/>
  <path d="m37.33242,265.5805l-0.68028,0l0,-3.68531l0.68028,0l0,3.68531" id="path188" fill-rule="nonzero" fill="#fecc86"/>
  <path d="m48.62083,267.96563l-0.68028,0l0,-6.07043l0.68028,0l0,6.07043" id="path190" fill-rule="nonzero" fill="#fecc86"/>
  <path d="m45.09185,265.5805l-0.68028,0l0,-3.68531l0.68028,0l0,3.68531" id="path192" fill-rule="nonzero" fill="#fecc86"/>
  <path d="m56.38026,267.96563l-0.68028,0l0,-6.07043l0.68028,0l0,6.07043" id="path194" fill-rule="nonzero" fill="#fecc86"/>
  <path d="m52.85128,265.5805l-0.68028,0l0,-3.68531l0.68028,0l0,3.68531" id="path196" fill-rule="nonzero" fill="#fecc86"/>
  <path d="m64.1397,267.96563l-0.68028,0l0,-6.07043l0.68028,0l0,6.07043" id="path198" fill-rule="nonzero" fill="#fecc86"/>
  <path d="m60.61071,265.5805l-0.68028,0l0,-3.68531l0.68028,0l0,3.68531" id="path200" fill-rule="nonzero" fill="#fecc86"/>
  <path d="m96.16696,220.91166l25.8707,43.82123l-25.90965,-0.03096l0.03896,-43.79027l-0.00001,0zm-6.65883,-26.63149l0.03606,79.69841l47.49796,0.05749l-47.53402,-79.7559" id="path202" fill-rule="nonzero" fill="#fecc86"/>
  <path d="m91.32317,204.88353l-0.34859,-0.5867l3.03542,-2.46915l0.34871,0.5867l-3.03554,2.46915" id="path204" fill-rule="nonzero" fill="#f99247"/>
  <path d="m96.26693,213.08849l-0.34859,-0.5867l2.9976,-2.4382l0.34859,0.58523l-2.9976,2.43967" id="path206" fill-rule="nonzero" fill="#f99247"/>
  <path d="m95.41671,207.93054l-0.34859,-0.5867l1.49974,-1.2191l0.34859,0.58523l-1.49974,1.22057" id="path208" fill-rule="nonzero" fill="#f99247"/>
  <path d="m101.25872,221.47624l-0.34871,-0.58523l3.00276,-2.44262l0.34859,0.58523l-3.00264,2.44262" id="path210" fill-rule="nonzero" fill="#f99247"/>
  <path d="m100.40837,216.31829l-0.34859,-0.58523l1.50504,-1.225l0.34859,0.5867l-1.50504,1.22352" id="path212" fill-rule="nonzero" fill="#f99247"/>
  <path d="m106.25038,229.86547l-0.34859,-0.58523l3.00806,-2.44704l0.34859,0.58523l-3.00806,2.44704" id="path214" fill-rule="nonzero" fill="#f99247"/>
  <path d="m105.40016,224.70752l-0.34859,-0.5867l1.51021,-1.22794l0.34859,0.58523l-1.51021,1.22942" id="path216" fill-rule="nonzero" fill="#f99247"/>
  <path d="m111.24217,238.2547l-0.34871,-0.5867l3.01335,-2.45147l0.34859,0.5867l-3.01323,2.45147" id="path218" fill-rule="nonzero" fill="#f99247"/>
  <path d="m110.39195,233.09675l-0.34859,-0.5867l1.51765,-1.23531l0.34859,0.5867l-1.51765,1.23531" id="path220" fill-rule="nonzero" fill="#f99247"/>
  <path d="m116.23384,246.64246l-0.34859,-0.58523l3.01852,-2.45589l0.34859,0.58523l-3.01852,2.45589" id="path222" fill-rule="nonzero" fill="#f99247"/>
  <path d="m115.38361,241.4845l-0.34859,-0.58523l1.51777,-1.23531l0.34859,0.58523l-1.51777,1.23531" id="path224" fill-rule="nonzero" fill="#f99247"/>
  <path d="m121.22563,255.03169l-0.34859,-0.5867l3.02357,-2.45884l0.34859,0.58523l-3.02357,2.46031" id="path226" fill-rule="nonzero" fill="#f99247"/>
  <path d="m120.3754,249.87373l-0.34859,-0.5867l1.52559,-1.24121l0.34859,0.5867l-1.52559,1.24121" id="path228" fill-rule="nonzero" fill="#f99247"/>
  <path d="m126.21729,263.41944l-0.34859,-0.58523l3.02924,-2.46473l0.34796,0.5867l-3.02861,2.46326" id="path230" fill-rule="nonzero" fill="#f99247"/>
  <path d="m125.36707,258.26149l-0.34859,-0.58523l1.53101,-1.24563l0.34859,0.58523l-1.53101,1.24563" id="path232" fill-rule="nonzero" fill="#f99247"/>
  <path d="m131.20883,271.80867l-0.34796,-0.58523l3.03453,-2.47063l0.34922,0.5867l-3.0358,2.46915" id="path234" fill-rule="nonzero" fill="#f99247"/>
  <path d="m130.35911,266.65072l-0.34922,-0.5867l1.53681,-1.24858l0.34796,0.58523l-1.53555,1.25006" id="path236" fill-rule="nonzero" fill="#f99247"/>
  <path d="m82.89065,229.08566c-0.40532,0 -0.7587,-0.35084 -0.81555,-0.83288c-0.01034,-0.08697 -1.06984,-8.79019 -4.95019,-15.90578c-0.24483,-0.44813 -0.132,-1.04368 0.25176,-1.33113c0.38376,-0.28598 0.89347,-0.15331 1.13817,0.29482c4.07992,7.48117 5.14988,16.30821 5.1935,16.67969c0.06165,0.52774 -0.25378,1.0142 -0.70461,1.08643c-0.03807,0.0059 -0.07577,0.00884 -0.11309,0.00884" id="path238" fill-rule="nonzero" fill="#21111d"/>
  <path d="m105.17147,228.42673c-4.76234,-9.85156 -12.08884,-8.99509 -16.11846,-6.42422c-3.26625,2.08293 -6.17093,2.61804 -7.15442,2.74629c-0.98361,-0.12825 -3.88829,-0.66335 -7.15442,-2.74629c-4.02961,-2.57087 -11.35624,-3.42733 -16.11846,6.42422c-4.76234,9.85156 3.11371,44.54797 14.65313,46.04715c0,0 3.48007,0 4.76221,0c0.50769,0 1.16036,-0.0339 1.89825,-0.06044c0.04337,0.04422 0.08951,0.06486 0.13868,0.06044c0.61371,-0.06044 1.2268,-0.0855 1.82059,-0.09287c0.5938,0.00737 1.20675,0.03243 1.82059,0.09287c0.04904,0.00442 0.09518,-0.01622 0.13855,-0.06044c0.73802,0.02653 1.39069,0.06044 1.89825,0.06044c1.28214,0 4.76234,0 4.76234,0c11.5393,-1.49918 19.41535,-36.19559 14.65313,-46.04715" id="path240" fill-rule="nonzero" fill="#ff424d"/>
  <path d="m62.25481,230.45512c-0.02572,0 -0.05207,-0.00737 -0.07741,-0.01916c-0.09657,-0.05012 -0.14007,-0.18279 -0.09733,-0.2963c0.01778,-0.04717 1.83005,-4.71424 6.24607,-5.8788c0.10275,-0.02801 0.2055,0.04865 0.22869,0.16805c0.02307,0.12088 -0.04148,0.24028 -0.1446,0.26829c-4.22364,1.11296 -5.96317,5.57955 -5.98031,5.62378c-0.03164,0.08402 -0.10161,0.13415 -0.17511,0.13415" id="path242" fill-rule="nonzero" fill="#21111d"/>
  <path d="m63.33032,232.53658c-0.02584,0 -0.05219,-0.0059 -0.07741,-0.01916c-0.09657,-0.05012 -0.14007,-0.18132 -0.09733,-0.29482c0.01778,-0.04717 1.82992,-4.71572 6.24607,-5.88027c0.1025,-0.02653 0.2055,0.04865 0.22869,0.16952c0.02307,0.12088 -0.04148,0.24028 -0.1446,0.26829c-4.22364,1.11296 -5.96317,5.57808 -5.98031,5.62378c-0.03164,0.08402 -0.10174,0.13267 -0.17511,0.13267" id="path244" fill-rule="nonzero" fill="#21111d"/>
  <path d="m97.71788,220.81289c-7.89055,12.75705 -23.10419,34.74358 -36.33095,38.622c2.88779,7.98679 7.06944,14.41249 11.89192,15.03899c0,0 3.48007,0 4.76221,0c0.50769,0 1.16036,-0.0339 1.89825,-0.06044c0.04337,0.04422 0.08951,0.06486 0.13868,0.06044c0.61371,-0.06044 1.2268,-0.0855 1.82059,-0.09287c0.5938,0.00737 1.20675,0.03243 1.82059,0.09287c0.04904,0.00442 0.09518,-0.01622 0.13855,-0.06044c0.73802,0.02653 1.39069,0.06044 1.89825,0.06044c1.28214,0 4.76234,0 4.76234,0c11.5393,-1.49918 19.41535,-36.19559 14.65313,-46.04715c-2.14321,-4.43269 -4.80584,-6.69694 -7.45358,-7.61384" id="path246" fill-rule="nonzero" fill="#ef3a4c"/>
  <path d="m100.01831,232.51742c-0.65406,1.32376 -3.1069,1.0997 -5.47868,-0.5012c-2.37178,-1.6009 -3.76436,-3.97276 -3.11043,-5.29799c0.65406,-1.32376 3.1069,-1.0997 5.47868,0.5012c2.37178,1.6009 3.76436,3.97276 3.11043,5.29799" id="path248" fill-rule="nonzero" fill="#f46e6e"/>
  <path d="m78.04107,274.69795l-4.78339,-0.00147c-4.86017,-0.6324 -8.49581,-6.74263 -10.69008,-11.7576c-5.18254,-11.84752 -7.1408,-28.34884 -4.10828,-34.62123c2.13262,-4.41205 5.05899,-7.1716 8.46228,-7.9809c2.59845,-0.61618 5.48309,-0.08108 7.91399,1.4697c3.19767,2.03871 6.0194,2.58119 7.08407,2.71976c0.02647,0.00442 2.23739,0.31694 5.13223,-1.64365c0.09115,-0.06191 0.2084,-0.02506 0.26135,0.08108c0.05308,0.10761 0.02194,0.2447 -0.06972,0.30662c-3.01575,2.04166 -5.27621,1.7144 -5.37063,1.69966c-1.0827,-0.14004 -3.96317,-0.69431 -7.22035,-2.77135c-3.63287,-2.31732 -11.06124,-3.58949 -15.86026,6.33873c-1.42448,2.94677 -1.77017,8.46736 -0.94831,15.1466c0.81341,6.60996 2.65947,13.55308 5.06441,19.05008c3.03806,6.94459 6.72464,11.0338 10.38108,11.51584l4.75162,0c0.10577,0 0.19138,0.10024 0.19138,0.22407c0,0.12383 -0.0856,0.22407 -0.19138,0.22407" id="path250" fill-rule="nonzero" fill="#21111d"/>
  <path d="m21.01287,274.26013c-0.10577,0 -0.19125,-0.10024 -0.19125,-0.22407l0,-9.97981c0,-1.31492 0.91515,-2.38513 2.04008,-2.38513l39.47719,0c0.10577,0 0.19138,0.10024 0.19138,0.22407c0,0.12383 -0.0856,0.22407 -0.19138,0.22407l-39.47719,0c-0.91389,0 -1.65746,0.86973 -1.65746,1.937l0,9.97981c0,0.12383 -0.0856,0.22407 -0.19138,0.22407" id="path252" fill-rule="nonzero" fill="#21111d"/>
  <path d="m273.70965,84.68803c0,-20.51683 -14.22462,-37.14788 -31.77121,-37.14788c-17.54659,0 -31.76995,16.63105 -31.76995,37.14788c0,10.17734 3.501,19.3965 9.16916,26.10523l-0.00126,0c0,0 9.61419,12.02294 12.86179,25.12789c0,0 5.55092,2.20381 9.74026,2.32616c4.18935,-0.12235 9.74026,-2.32616 9.74026,-2.32616c3.24759,-13.10495 12.86179,-25.12789 12.86179,-25.12789l-0.00126,0c5.66942,-6.70873 9.17042,-15.92789 9.17042,-26.10523" id="path254" fill-rule="nonzero" fill="#fecc86"/>
  <path d="m241.93088,157.74995l0,0c-2.72692,0 -4.93821,-2.58561 -4.93821,-5.77414l9.87642,0c0,3.18853 -2.21003,5.77414 -4.93821,5.77414" id="path256" fill-rule="nonzero" fill="#4cb7d8"/>
  <path d="m243.2332,153.55607l-2.60337,0c-5.1311,0 -9.29019,-4.86313 -9.29019,-10.86133l0,-9.73658l21.18249,0l0,9.73658c0,5.9982 -4.15909,10.86133 -9.28893,10.86133" id="path258" fill-rule="nonzero" fill="#4cb7d8"/>
  <path d="m252.52213,132.95963l0,-0.00147c3.71028,-11.58955 11.59477,-21.62832 12.00198,-22.14426c-0.40721,0.51447 -8.2917,10.55619 -12.00198,22.14574m-21.16736,-0.00147l0,0c-1.88476,-5.88912 -4.8487,-11.38022 -7.3613,-15.42227c2.5126,4.04204 5.47653,9.53167 7.3613,15.42227m-7.36382,-15.42669c-0.00504,-0.00737 -0.00882,-0.01327 -0.01387,-0.02064c0.00504,0.00737 0.00882,0.01327 0.01387,0.02064m-0.02269,-0.03538c-0.00126,-0.00295 -0.00378,-0.0059 -0.00504,-0.00884c0.00126,0.00147 0.00378,0.0059 0.00504,0.00884m-0.01765,-0.02948c-0.00126,-0.00147 -0.00252,-0.00442 -0.00378,-0.0059c0.00126,0.00147 0.00252,0.00442 0.00378,0.0059m-0.01891,-0.02948l0,0l0,0m40.59493,-6.6247c0.00252,-0.00295 0.00378,-0.0059 0.0063,-0.00737c-0.00252,0.00147 -0.00378,0.00442 -0.0063,0.00737m0.0063,-0.00884c0,0 0,0 0,0c0,0 0,0 0,0m0.00126,-0.00147c0.00126,-0.00147 0.00252,-0.00295 0.00252,-0.00295c0,0 -0.00126,0.00147 -0.00252,0.00295m0.00252,-0.00295c0.00126,-0.00147 0.00126,-0.00147 0.00126,-0.00147c0,0 0,0 -0.00126,0.00147m0.00126,-0.00295c0,0 0.00126,0 0.00126,0c0,0 -0.00126,0 -0.00126,0m0.00126,0c0.00126,-0.00147 0.00126,-0.00147 0.00126,-0.00147c0,0 0,0 -0.00126,0.00147m0.00126,-0.00295l0,0l0,0" id="path260" fill-rule="nonzero" fill="#fee1bd"/>
  <path d="m271.58157,98.08043l0,0c1.37418,-4.15408 2.12808,-8.67079 2.12808,-13.3924l0,0c0,4.72161 -0.75391,9.23832 -2.12808,13.3924" id="path262" fill-rule="nonzero" fill="#fff0da"/>
  <path d="m264.54049,110.79326l-0.00126,0c3.03958,-3.59538 5.4551,-7.91309 7.04234,-12.71283l0,0c-1.58724,4.79974 -4.00276,9.11597 -7.04234,12.71283l0.00126,0" id="path264" fill-rule="nonzero" fill="#fee1bd"/>
  <path d="m273.70965,84.68803c0,-0.01769 0,-0.03685 0,-0.05307c0,0.01769 0,0.03538 0,0.05307m0,-0.06928c0,-0.01327 0,-0.02801 0,-0.04128c0,0.01474 0,0.02801 0,0.04128m0,-0.05602c0,-0.01916 -0.00126,-0.03538 -0.00126,-0.05454c0,0.01916 0.00126,0.03685 0.00126,0.05454m-0.00126,-0.05896c0,-0.01622 0,-0.03243 0,-0.04865c0,0.01622 0,0.03243 0,0.04865m0,-0.06634c0,-0.01179 0,-0.02653 0,-0.0398c0,0.01327 0,0.02653 0,0.0398m0,-0.05454c0,-0.01916 0,-0.0339 0,-0.05307c0,0.01769 0,0.03538 0,0.05307m-0.00126,-0.06191c0,-0.01474 0,-0.03096 0,-0.0457c0,0.01622 0,0.02948 0,0.0457m0,-0.06191c0,-0.01327 0,-0.02506 0,-0.0398c0,0.01327 0,0.02653 0,0.0398m0,-0.05602c-0.00126,-0.01769 -0.00126,-0.0339 -0.00126,-0.05159c0,0.01769 0,0.0339 0.00126,0.05159m-0.00126,-0.06634c0,-0.01179 0,-0.02653 0,-0.03833c0,0.01179 0,0.02653 0,0.03833m-0.00126,-0.05749c0,-0.01327 0,-0.02653 0,-0.03833c0,0.01179 0,0.02506 0,0.03833m0,-0.05454c0,-0.01769 -0.00126,-0.0339 -0.00126,-0.05159c0,0.01769 0.00126,0.0339 0.00126,0.05159m-0.00126,-0.06928c0,-0.01179 0,-0.02359 -0.00126,-0.03538c0.00126,0.01179 0.00126,0.02359 0.00126,0.03538m-0.00126,-0.05749c0,-0.01032 0,-0.02211 0,-0.0339c0,0.01179 0,0.02359 0,0.0339m-0.00126,-0.05307c0,-0.01622 0,-0.03243 0,-0.04865c0,0.01622 0,0.03243 0,0.04865m-0.00126,-0.07223c0,-0.01032 0,-0.01916 0,-0.02801c0,0.00884 0,0.01916 0,0.02801m-0.00126,-0.05454c0,-0.01032 0,-0.01769 0,-0.02801c0,0.00884 0,0.01769 0,0.02801m-0.00126,-0.06634c0,-0.01179 0,-0.02211 -0.00126,-0.03243c0.00126,0.01032 0.00126,0.02064 0.00126,0.03243m-0.00126,-0.05896c0,-0.00884 0,-0.01769 -0.00126,-0.02653c0.00126,0.00884 0.00126,0.01769 0.00126,0.02653m-0.00126,-0.05307c0,-0.00737 0,-0.01622 -0.00126,-0.02359c0.00126,0.00737 0.00126,0.01474 0.00126,0.02359m-0.00252,-0.07665c0,-0.00737 0,-0.01327 0,-0.02064c0,0.00737 0,0.01327 0,0.02064m-0.00126,-0.05159c0,-0.00737 0,-0.01327 0,-0.02064c0,0.00737 0,0.01474 0,0.02064m-0.00126,-0.05159c0,-0.0059 0,-0.01032 -0.00126,-0.01622c0.00126,0.00442 0.00126,0.01032 0.00126,0.01622m-0.00252,-0.07813c0,-0.00442 0,-0.01032 0,-0.01474c0,0.00442 0,0.01032 0,0.01474m-0.00126,-0.05012c0,-0.00442 -0.00126,-0.01032 -0.00126,-0.01327c0,0.00442 0.00126,0.00884 0.00126,0.01327m-0.00504,-0.13415c0,-0.00147 0,-0.00442 0,-0.0059c0,0.00147 0,0.00442 0,0.0059m-0.00126,-0.0457c0,-0.00295 0,-0.00295 -0.00126,-0.0059c0.00126,0.00147 0.00126,0.00295 0.00126,0.0059m-0.00504,-0.13415l0,-0.00147l0,0.00147" id="path266" fill-rule="nonzero" fill="#fff0da"/>
  <path d="m252.52213,132.95816l-21.16736,0c-1.88476,-5.89059 -4.8487,-11.38022 -7.3613,-15.42227c-0.00126,-0.00147 -0.00252,-0.00295 -0.00252,-0.00442c-0.00504,-0.00737 -0.00882,-0.01327 -0.01387,-0.02064c-0.00252,-0.0059 -0.00504,-0.01032 -0.00882,-0.01474c-0.00126,-0.00295 -0.00378,-0.00737 -0.00504,-0.00884c-0.00504,-0.00737 -0.00882,-0.01327 -0.01261,-0.02064c-0.00126,-0.00147 -0.00252,-0.00442 -0.00378,-0.0059c-0.00504,-0.00737 -0.01009,-0.01622 -0.01513,-0.02359l0,0c-0.33787,-0.54248 -0.66692,-1.05695 -0.98336,-1.54341c21.34638,-6.98292 36.16605,-24.98932 45.45876,-51.75938c3.08748,5.42624 4.98864,11.85636 5.26726,18.78179l0,0.00147c0.00126,0.04275 0.00252,0.0855 0.00378,0.12825c0.00126,0.00295 0.00126,0.00295 0.00126,0.0059c0,0.01327 0,0.02653 0.00126,0.0398c0,0.00147 0,0.00442 0,0.0059c0.00126,0.0398 0.00252,0.0796 0.00378,0.12088c0,0.00295 0.00126,0.00884 0.00126,0.01327c0,0.01179 0,0.02359 0.00126,0.03538c0,0.00442 0,0.01032 0,0.01474c0,0.02064 0.00126,0.04128 0.00126,0.06191c0.00126,0.0059 0.00126,0.01032 0.00126,0.01622c0,0.01032 0,0.02064 0.00126,0.03096c0,0.00737 0,0.01327 0,0.02064c0,0.01032 0.00126,0.02064 0.00126,0.03096c0,0.00737 0,0.01327 0,0.02064c0.00126,0.01769 0.00126,0.03538 0.00126,0.05307c0.00126,0.00737 0.00126,0.01622 0.00126,0.02359c0,0.00884 0,0.01769 0,0.02653c0.00126,0.00884 0.00126,0.01769 0.00126,0.02653c0,0.00884 0,0.01769 0,0.02653c0.00126,0.01032 0.00126,0.02064 0.00126,0.03243c0,0.01179 0.00126,0.02506 0.00126,0.03833c0,0.01032 0,0.01769 0,0.02801c0,0.00884 0.00126,0.01769 0.00126,0.02653c0,0.00884 0,0.01769 0,0.02801c0,0.00737 0,0.01622 0.00126,0.02359c0,0.01622 0,0.03243 0,0.04865c0,0.00737 0.00126,0.01327 0.00126,0.01916c0,0.01179 0,0.02359 0,0.0339c0,0.00737 0,0.01474 0,0.02211c0.00126,0.01179 0.00126,0.02359 0.00126,0.03538c0,0.0059 0,0.01179 0,0.01769c0,0.01769 0.00126,0.0339 0.00126,0.05159c0,0.0059 0,0.01032 0,0.01622c0,0.01179 0,0.02506 0,0.03833c0,0.0059 0,0.01179 0.00126,0.01916c0,0.01179 0,0.02653 0,0.03833c0,0.0059 0,0.01032 0,0.01474c0,0.01769 0,0.0339 0.00126,0.05159c0,0.0059 0,0.01179 0,0.01622c0,0.01474 0,0.02653 0,0.0398c0,0.0059 0,0.01032 0,0.01622c0,0.01474 0,0.03096 0,0.0457c0,0.00295 0.00126,0.0059 0.00126,0.00884c0,0.01916 0,0.0339 0,0.05307c0,0.0059 0,0.01032 0,0.01474c0,0.01327 0,0.02801 0,0.0398c0,0.0059 0,0.01179 0,0.01769c0,0.01622 0,0.03243 0,0.04865c0,0.00147 0,0.00295 0,0.00442c0,0.01916 0.00126,0.03538 0.00126,0.05454c0,0.00442 0,0.01032 0,0.01474c0,0.01327 0,0.02801 0,0.04128c0,0.00442 0,0.01032 0,0.01622c0,0.01622 0,0.03538 0,0.05307l0,0c0,4.72161 -0.75391,9.23832 -2.12808,13.3924c-1.58724,4.79974 -4.00276,9.11745 -7.04234,12.71283l0.00126,0l0,0l0,0l0,0c0,0 0,0 0,0.00147c0,0 0,0 -0.00126,0.00147c0,0 0,0 0,0c0,0 -0.00126,0 -0.00126,0c0,0.00147 0,0.00147 0,0.00147c0,0 0,0 -0.00126,0.00147c0,0 0,0 0,0c0,0 -0.00126,0.00147 -0.00252,0.00295c0,0 0,0.00147 -0.00126,0.00147c0,0 0,0 0,0c0,0 0,0 0,0.00147c-0.00252,0.00147 -0.00378,0.00442 -0.0063,0.00737c-0.00126,0 -0.00126,0.00147 -0.00252,0.00147c-0.40721,0.51594 -8.2917,10.55471 -12.00198,22.14426" id="path268" fill-rule="nonzero" fill="#fec073"/>
  <path d="m252.52213,132.95816l-21.16736,0l0,0l0,0l21.16736,0" id="path270" fill-rule="nonzero" fill="#4cacb9"/>
  <path d="m246.91448,80.32021c-0.96444,2.58856 -0.735,6.64976 0.1349,8.18875c0.34165,0.60292 0.59506,0.5071 0.68961,0.47172c1.01992,-0.38327 1.9062,-2.33501 1.59858,-4.62874c-0.23323,-1.74241 -1.08295,-3.11629 -2.42309,-4.03172l0,-0.00001zm-10.50047,0c-1.34014,0.91543 -2.18986,2.28931 -2.42309,4.03172c-0.30761,2.29373 0.57867,4.24547 1.59858,4.62874c0.09455,0.03538 0.34796,0.1312 0.68961,-0.47172c0.86989,-1.53898 1.09934,-5.60019 0.1349,-8.18875l0,0.00001zm10.71605,52.78389l-0.90897,-0.2904c0.029,-0.12677 2.99167,-12.86614 5.04663,-25.91212c3.56529,-22.63809 1.51538,-27.44078 -0.02395,-28.28693c-1.57463,-0.86531 -2.81139,-0.71053 -3.67876,0.4614c-0.06304,0.0855 -0.12481,0.17542 -0.1828,0.26829c2.22137,1.53161 2.75844,3.88431 2.88577,4.83659c0.353,2.62836 -0.65305,5.2523 -2.24029,5.84932c-0.38452,0.14446 -1.12456,0.2167 -1.76374,-0.91396c-1.01613,-1.79548 -1.33383,-6.28713 -0.19667,-9.28107c-1.09178,-0.52331 -2.42183,-0.80045 -3.94477,-0.80045l-0.91654,0c-1.52294,0 -2.85299,0.27713 -3.94477,0.80045c1.13716,2.99394 0.81946,7.48559 -0.19667,9.28107c-0.63918,1.13065 -1.37922,1.05842 -1.76374,0.91396c-1.5885,-0.59702 -2.59329,-3.22096 -2.24155,-5.84932c0.12859,-0.95228 0.66566,-3.30498 2.88577,-4.83659c-0.05799,-0.09287 -0.11851,-0.18279 -0.18154,-0.26829c-0.86737,-1.17193 -2.10539,-1.32818 -3.67876,-0.4614c-1.53933,0.84615 -3.59051,5.64884 -0.02395,28.28693c2.05496,13.04598 5.01763,25.78534 5.04663,25.91212l-0.90897,0.2904c-0.03026,-0.12825 -3.00176,-12.90446 -5.06428,-25.99762c-2.84669,-18.07274 -2.66767,-27.71939 0.54841,-29.48981c2.49621,-1.37241 3.98511,-0.35526 4.79449,0.73854c0.11346,0.15331 0.21936,0.31694 0.31896,0.48941c1.11195,-0.5528 2.54916,-0.91248 4.40997,-0.91248l0.91654,0c1.86081,0 3.29802,0.35969 4.40997,0.91248c0.0996,-0.17247 0.2055,-0.3361 0.31896,-0.48941c0.80938,-1.09527 2.29828,-2.11094 4.79323,-0.73854c3.21734,1.77042 3.39636,11.41708 0.54967,29.48981c-2.06253,13.09315 -5.03528,25.86937 -5.06428,25.99762" id="path272" fill-rule="nonzero" fill="#f99247"/>
  <path d="m231.18583,133.21761c-0.25214,-0.84615 -0.36687,-1.15571 -0.61775,-1.83528l-0.13616,-0.37148c-3.9662,-10.83185 -11.19512,-19.9375 -11.26699,-20.0289l-0.02395,-0.02801c-5.93795,-7.0463 -9.20824,-16.37307 -9.20824,-26.26591c0,-20.63624 14.35825,-37.42354 32.0057,-37.42354c10.83582,0 20.85218,6.33578 26.79644,16.94946l-0.3946,0.3022c-5.85601,-10.45742 -15.72612,-16.70033 -26.40184,-16.70033c-17.38774,0 -31.53419,16.54112 -31.53419,36.87222c0,9.76311 3.23247,18.96458 9.10108,25.91212l0.30761,0.36263l-0.02269,0.0059c1.38426,1.80875 7.52519,10.13017 11.07536,19.82547l0.13616,0.37c0.25466,0.69136 0.37065,1.00683 0.6291,1.87214l-0.44503,0.18132" id="path274" fill-rule="nonzero" fill="#21111d"/>
  <path d="m219.75117,67.5381l-0.4526,-0.15331c0.02269,-0.09287 2.3714,-9.23537 10.2748,-12.67303l0.16515,0.51594c-7.67648,3.33889 -9.96467,12.22047 -9.98736,12.31039" id="path276" fill-rule="nonzero" fill="#21111d"/>
  <path d="m221.20729,70.84308l-0.45133,-0.15331c0.02269,-0.0914 2.3714,-9.23537 10.2748,-12.67303l0.16389,0.51742c-7.67522,3.33889 -9.96467,12.22047 -9.98736,12.30892" id="path278" fill-rule="nonzero" fill="#21111d"/>
  <path d="m243.08569,153.83173l-2.30836,0c-5.33407,0 -9.67218,-5.07393 -9.67218,-11.30946l0,-9.83977l21.41698,0l0,0.55132l-20.94673,0l0,9.28844c0,5.93187 4.12757,10.75814 9.20194,10.75814l2.30836,0c2.42939,0 4.72011,-1.09675 6.45233,-3.08829l0.33031,0.39212c-1.82047,2.09473 -4.22843,3.24749 -6.78263,3.24749" id="path280" fill-rule="nonzero" fill="#21111d"/>
  <path d="m242.0683,158.02708c-4.59025,0 -5.25339,-5.2066 -5.25969,-5.25967l0.46772,-0.07518c0.02269,0.19901 0.6354,4.89851 4.94577,4.78205l0.01009,0.55132c-0.05547,0 -0.10968,0.00147 -0.16389,0.00147" id="path282" fill-rule="nonzero" fill="#21111d"/>
  <path d="m263.72481,105.48495l-0.28114,-0.44371c4.19439,-3.63813 4.85374,-9.71004 4.86005,-9.77196l0.46772,0.06486c-0.0063,0.06339 -0.68583,6.36673 -5.04663,10.1508" id="path284" fill-rule="nonzero" fill="#21111d"/>
  <path d="m262.79693,102.83742l-0.28114,-0.44224c3.05597,-2.65195 3.53882,-7.08168 3.54386,-7.12591l0.46772,0.06486c-0.01891,0.19164 -0.50681,4.70687 -3.73045,7.50328" id="path286" fill-rule="nonzero" fill="#21111d"/>
  <path d="m230.36763,137.91121l-0.00504,-0.55132c0.17902,-0.00295 18.03953,-0.27271 23.69509,-2.73892l0.16515,0.51742c-5.73246,2.49864 -23.11768,2.7625 -23.8552,2.77282" id="path288" fill-rule="nonzero" fill="#21111d"/>
  <path d="m230.36889,142.56501l-0.00756,-0.55132c0.19541,-0.00442 19.57634,-0.45403 23.19963,-2.7227l0.22315,0.48499c-3.72288,2.33206 -22.61213,2.77135 -23.41521,2.78904" id="path290" fill-rule="nonzero" fill="#21111d"/>
  <path d="m231.34216,147.34117l-0.00378,-0.55132c0.17524,-0.00147 17.56676,-0.2167 22.22636,-3.0308l0.21558,0.48941c-4.75793,2.87454 -21.71829,3.08534 -22.43816,3.09271" id="path292" fill-rule="nonzero" fill="#21111d"/>
  <path d="m202.06842,78.84019c-0.02017,0 -0.04034,0 -0.06051,-0.00295l-11.24303,-1.11886c-0.3883,-0.03833 -0.677,-0.43781 -0.64422,-0.89332c0.03278,-0.45403 0.37569,-0.7916 0.76399,-0.75328l11.24303,1.11886c0.38956,0.03833 0.67826,0.43781 0.64422,0.89332c-0.03026,0.43192 -0.34039,0.75622 -0.70348,0.75622" id="path294" fill-rule="nonzero" fill="#fecc86"/>
  <path d="m207.88409,57.89734c-0.13742,0 -0.2761,-0.04717 -0.39839,-0.14446l-9.31288,-7.45021c-0.32274,-0.25797 -0.40469,-0.77244 -0.18406,-1.14982c0.22062,-0.3759 0.66061,-0.47319 0.98336,-0.21522l9.31162,7.45021c0.32274,0.25797 0.40469,0.77244 0.18406,1.14982c-0.13742,0.23291 -0.35804,0.35969 -0.58371,0.35969" id="path296" fill-rule="nonzero" fill="#fecc86"/>
  <path d="m224.7146,42.87456c-0.27862,0 -0.54337,-0.19458 -0.65557,-0.51594l-4.24608,-12.22342c-0.1475,-0.42307 0.02647,-0.90511 0.3883,-1.07758c0.36056,-0.17247 0.77408,0.03096 0.92158,0.4555l4.24608,12.22342c0.1475,0.4216 -0.02647,0.90511 -0.3883,1.07611c-0.08699,0.04128 -0.17776,0.06191 -0.26601,0.06191" id="path298" fill-rule="nonzero" fill="#fecc86"/>
  <path d="m281.24367,81.22237c-0.36939,0 -0.68078,-0.33463 -0.70474,-0.77244c-0.02647,-0.4555 0.26979,-0.84909 0.65809,-0.87858l11.25942,-0.86973c0.38704,-0.02948 0.72617,0.31399 0.75265,0.76949c0.02521,0.4555 -0.26979,0.85057 -0.65935,0.88005l-11.25942,0.86973c-0.01513,0.00147 -0.03152,0.00147 -0.04665,0.00147" id="path300" fill-rule="nonzero" fill="#fecc86"/>
  <path d="m275.7684,60.15422c-0.22945,0 -0.45512,-0.1312 -0.59127,-0.37295c-0.21432,-0.3818 -0.12355,-0.89479 0.20297,-1.14539l9.43139,-7.24236c0.32526,-0.2506 0.76525,-0.14446 0.97831,0.23733c0.21432,0.3818 0.12355,0.89332 -0.20297,1.14392l-9.43139,7.24384c-0.11851,0.0914 -0.2534,0.13562 -0.38704,0.13562" id="path302" fill-rule="nonzero" fill="#fecc86"/>
  <path d="m261.36224,42.82591c-0.09329,0 -0.18785,-0.02211 -0.27862,-0.06781c-0.35804,-0.17984 -0.52446,-0.66483 -0.37065,-1.08495l4.44401,-12.1276c0.15381,-0.42012 0.56984,-0.61323 0.92788,-0.43339c0.3593,0.17984 0.52572,0.66483 0.37191,1.08495l-4.44401,12.1276c-0.11472,0.31251 -0.37695,0.5012 -0.65053,0.5012" id="path304" fill-rule="nonzero" fill="#fecc86"/>
  <path d="m243.23824,36.40611l-0.01135,-0.00147c-0.38956,-0.0059 -0.70222,-0.3818 -0.69591,-0.83878l0.17398,-13.19192c0.0063,-0.45256 0.32148,-0.81372 0.70726,-0.81372l0.01009,0c0.39082,0.00737 0.70222,0.38327 0.69717,0.83878l-0.17398,13.19192c-0.0063,0.45256 -0.32148,0.81519 -0.70726,0.81519" id="path306" fill-rule="nonzero" fill="#fecc86"/>
  <path d="m260.78231,67.98181c-1.68683,0 -3.91955,-0.85794 -6.07663,-2.4839c-3.6132,-2.7227 -5.64169,-6.56574 -4.52974,-8.58381c0.44881,-0.81519 1.34014,-1.20731 2.48108,-1.20731c1.68809,0 3.92082,0.85941 6.07663,2.4839c3.61446,2.7227 5.64169,6.56574 4.52974,8.58381c-0.44881,0.81519 -1.34014,1.20731 -2.48108,1.20731" id="path308" fill-rule="nonzero" fill="#f8e6c2"/>
  <path d="m35.04044,154.34767c-0.16414,0 -0.31593,-0.1253 -0.36598,-0.31841c-0.00832,-0.03243 -0.20953,-0.81372 -0.48386,-2.19349c-0.04791,-0.24176 0.08031,-0.48204 0.28618,-0.53805c0.20424,-0.05602 0.41124,0.09434 0.45928,0.33463c0.2679,1.34882 0.46898,2.13011 0.47088,2.13748c0.06127,0.23586 -0.05333,0.48646 -0.25542,0.55722c-0.03706,0.01327 -0.07426,0.02064 -0.11107,0.02064" id="path310" fill-rule="nonzero" fill="#21111d"/>
  <path d="m90.96122,82.75104c-0.1915,0 -0.35678,-0.16658 -0.37947,-0.39506c-0.02446,-0.2447 0.12595,-0.4673 0.33585,-0.49678c1.28555,-0.17395 2.60224,-0.30367 3.91376,-0.38475c0.2089,-0.01327 0.39107,0.17689 0.40217,0.42455c0.01097,0.24618 -0.15103,0.45698 -0.3622,0.46877c-1.29513,0.0796 -2.59555,0.20785 -3.86522,0.38032c-0.01513,0.00295 -0.03,0.00295 -0.04488,0.00295l-0.00001,0zm-7.66337,1.69082c-0.16868,0 -0.32325,-0.1312 -0.36914,-0.33168c-0.05522,-0.23881 0.06568,-0.48351 0.26979,-0.54837c1.22995,-0.38769 2.51991,-0.72969 3.83433,-1.01714c0.20802,-0.0457 0.40759,0.11498 0.44642,0.35821c0.03883,0.24323 -0.09808,0.47614 -0.30597,0.52184c-1.29463,0.28303 -2.56505,0.61913 -3.77571,1.00093c-0.03316,0.01032 -0.06682,0.01622 -0.09972,0.01622l0,-0.00001zm-7.29662,3.19442c-0.14032,0 -0.27521,-0.08992 -0.34241,-0.24618c-0.09481,-0.22112 -0.01853,-0.48941 0.17032,-0.59997c1.13603,-0.66778 2.3535,-1.28396 3.61824,-1.83233c0.19781,-0.08697 0.41856,0.03096 0.49193,0.26387c0.07363,0.23144 -0.02748,0.48941 -0.22554,0.57491c-1.23878,0.53805 -2.43027,1.14097 -3.54121,1.79253c-0.05509,0.03243 -0.11384,0.04717 -0.17133,0.04717zm-6.41942,5.13289c-0.10262,0 -0.20474,-0.04865 -0.28026,-0.14299c-0.14385,-0.18132 -0.13515,-0.46435 0.01954,-0.6324c0.94213,-1.02451 1.98449,-1.99154 3.09858,-2.87454c0.17524,-0.13857 0.41288,-0.0855 0.53152,0.11793c0.11863,0.2049 0.07312,0.48351 -0.10187,0.62208c-1.08182,0.85794 -2.09354,1.79695 -3.0068,2.78904c-0.07388,0.08108 -0.1673,0.12088 -0.26072,0.12088l0.00001,0zm-10.87364,6.27976c-0.19188,0 -0.35716,-0.16805 -0.3796,-0.39654c-0.02395,-0.24618 0.12683,-0.4673 0.33686,-0.49531c1.36661,-0.18279 2.71015,-0.20785 3.97099,-0.07518c0.21054,0.02211 0.36561,0.24028 0.34682,0.48646c-0.01891,0.24618 -0.20033,0.42897 -0.41553,0.40538c-1.20928,-0.12825 -2.50012,-0.10319 -3.81555,0.07223c-0.01462,0.00147 -0.02937,0.00295 -0.044,0.00295l0.00001,0.00001zm5.9348,0.74885c-0.06972,0 -0.14019,-0.02211 -0.20348,-0.06928c-0.17877,-0.1312 -0.2326,-0.40686 -0.11989,-0.61618c0.69137,-1.28543 1.4686,-2.54433 2.3095,-3.74132c0.13439,-0.19016 0.37531,-0.21817 0.5387,-0.06191c0.16326,0.15773 0.18684,0.43929 0.05282,0.63092c-0.82072,1.1675 -1.57904,2.39545 -2.25352,3.64845c-0.07262,0.13562 -0.19692,0.20933 -0.32413,0.20933l0,-0.00001zm-13.41852,1.70114c-0.147,0 -0.28706,-0.10024 -0.35023,-0.26682c-0.08535,-0.22554 0.00202,-0.49088 0.19528,-0.58965c1.22629,-0.63387 2.47604,-1.16456 3.71444,-1.57584c0.20373,-0.06634 0.4149,0.07076 0.47264,0.30809c0.05774,0.23881 -0.06014,0.48499 -0.26336,0.5528c-1.20436,0.40096 -2.42057,0.91543 -3.61434,1.53309c-0.0503,0.02506 -0.10275,0.03833 -0.15444,0.03833l0.00001,0zm18.54609,0.70463c-0.08573,0 -0.17209,-0.0339 -0.24344,-0.10171c-0.94692,-0.91396 -2.04412,-1.64659 -3.26083,-2.1758c-0.19806,-0.0855 -0.29891,-0.34347 -0.22516,-0.57491c0.07337,-0.23291 0.29463,-0.34937 0.49193,-0.26387c1.29715,0.56459 2.46822,1.34587 3.48133,2.32322c0.16288,0.15773 0.18596,0.44076 0.05144,0.63092c-0.07577,0.10614 -0.18507,0.16215 -0.29526,0.16215l-0.00001,0zm-25.21261,3.98897c-0.11359,0 -0.22579,-0.05749 -0.30144,-0.171c-0.13036,-0.19458 -0.10098,-0.47614 0.0653,-0.62798c1.03605,-0.94933 2.12846,-1.83086 3.24709,-2.61951c0.18091,-0.12825 0.41616,-0.05896 0.52546,0.15183c0.10918,0.21227 0.05106,0.48646 -0.12998,0.61471c-1.09216,0.76949 -2.15884,1.63038 -3.17057,2.5576c-0.0701,0.06339 -0.1533,0.09434 -0.23588,0.09434l0.00002,0.00001zm16.88195,1.88982c-0.03492,0 -0.07047,-0.0059 -0.10552,-0.01769c-0.20335,-0.06781 -0.32073,-0.31546 -0.26261,-0.5528c0.35615,-1.45201 0.8177,-2.91139 1.37191,-4.33687c0.08737,-0.22407 0.31442,-0.32283 0.50668,-0.22112c0.19226,0.10171 0.27748,0.36706 0.18986,0.5926c-0.5387,1.3842 -0.98689,2.80231 -1.33257,4.21157c-0.04829,0.19606 -0.20121,0.32431 -0.36775,0.32431zm12.35788,1.76747c-0.16755,0 -0.32136,-0.12972 -0.36851,-0.32726c-0.34468,-1.44759 -0.8419,-2.82147 -1.47768,-4.08037c-0.10741,-0.21227 -0.0469,-0.48793 0.13515,-0.61323c0.18192,-0.1253 0.41641,-0.05454 0.52395,0.15773c0.66994,1.32671 1.19326,2.77282 1.55597,4.29559c0.05661,0.23881 -0.06253,0.48499 -0.26614,0.55132c-0.03442,0.01179 -0.06871,0.01622 -0.10275,0.01622l0.00001,0zm-34.67992,2.83916c-0.07829,0 -0.15746,-0.02801 -0.22554,-0.08697c-0.17057,-0.14594 -0.20777,-0.42455 -0.08295,-0.62503c0.7771,-1.24121 1.63867,-2.4264 2.56063,-3.5202c0.14801,-0.17542 0.39057,-0.17689 0.5411,-0.00442c0.15053,0.17395 0.15229,0.45698 0.00378,0.63387c-0.89574,1.06137 -1.73272,2.21266 -2.48789,3.41996c-0.07489,0.1194 -0.19125,0.18279 -0.30913,0.18279zm21.5433,4.41352c-0.19188,0 -0.35741,-0.16952 -0.37973,-0.39801c-0.06745,-0.69579 -0.10161,-1.42548 -0.10161,-2.17138c0,-0.80487 0.03984,-1.63922 0.11851,-2.47947c0.0232,-0.2447 0.21356,-0.42012 0.42209,-0.39506c0.20991,0.02653 0.3617,0.24765 0.33875,0.49236c-0.07564,0.80782 -0.11397,1.60974 -0.11397,2.38218c0,0.712 0.0324,1.40926 0.0967,2.07114c0.02383,0.24618 -0.12708,0.4673 -0.33699,0.49531c-0.01475,0.00147 -0.02937,0.00295 -0.04375,0.00295l0,-0.00002zm13.11292,1.74094c-0.04022,0 -0.08106,-0.00737 -0.12153,-0.02359c-0.20045,-0.07813 -0.30837,-0.33168 -0.2413,-0.56606c0.36825,-1.28543 0.55484,-2.70796 0.55484,-4.22631l-0.00038,-0.1194c-0.00101,-0.24765 0.16931,-0.44813 0.38061,-0.44961l0.00202,0c0.21041,0 0.38162,0.19901 0.38275,0.44518l0.00038,0.12383c0,1.61564 -0.20008,3.13251 -0.59455,4.51081c-0.05371,0.18721 -0.20272,0.30514 -0.36283,0.30514l-0.00001,0.00001zm-38.32817,1.86034c-0.04476,0 -0.09014,-0.00884 -0.13464,-0.02801c-0.19781,-0.08845 -0.29778,-0.34642 -0.22352,-0.57786c0.46999,-1.46086 1.01601,-2.87601 1.62279,-4.20714c0.09922,-0.21817 0.33106,-0.30072 0.51777,-0.18427c0.18646,0.11646 0.25693,0.38769 0.15746,0.60586c-0.59115,1.29723 -1.12329,2.67701 -1.58156,4.10101c-0.05774,0.17984 -0.20348,0.2904 -0.35829,0.2904l-0.00001,0.00001zm29.01643,3.84156c-0.04274,0 -0.08636,-0.00884 -0.12897,-0.02653c-1.21482,-0.50857 -2.23877,-1.64659 -2.96103,-3.29319c-0.09657,-0.21964 -0.02231,-0.48941 0.16566,-0.60144c0.18822,-0.11351 0.41868,-0.02653 0.51513,0.19311c0.63187,1.44022 1.50958,2.42788 2.53807,2.85832c0.19907,0.08402 0.30257,0.33905 0.23134,0.57196c-0.05585,0.18279 -0.2031,0.29777 -0.36019,0.29777l-0.00001,0zm3.85929,0.171c-0.1799,0 -0.34027,-0.14889 -0.37544,-0.36263c-0.03996,-0.24323 0.09607,-0.47762 0.30345,-0.52479c1.26134,-0.28303 2.35085,-0.92575 3.23852,-1.91194c0.15305,-0.171 0.39523,-0.16363 0.54097,0.01622c0.14549,0.17984 0.13918,0.46287 -0.01399,0.6324c-0.99533,1.10559 -2.21356,1.82644 -3.62089,2.1419c-0.02446,0.0059 -0.04879,0.00884 -0.07262,0.00884zm-34.77435,4.81301c-0.01828,0 -0.03669,-0.00147 -0.05509,-0.00442c-0.20915,-0.03538 -0.35426,-0.26239 -0.32426,-0.5071c0.19087,-1.54783 0.44402,-3.06912 0.75265,-4.51671c0.05106,-0.24028 0.25882,-0.38622 0.46369,-0.32726c0.20499,0.06044 0.33005,0.30367 0.27887,0.54248c-0.30232,1.41958 -0.55068,2.90992 -0.73764,4.42974c-0.02748,0.22259 -0.19112,0.38327 -0.37821,0.38327l-0.00001,0zm-0.44251,9.09828c-0.20739,0 -0.37758,-0.19311 -0.38225,-0.43634c-0.0092,-0.4673 -0.01362,-0.93607 -0.01362,-1.39452c0,-1.07611 0.02509,-2.15369 0.07438,-3.20032c0.0116,-0.24765 0.18734,-0.43634 0.40318,-0.42307c0.21092,0.01327 0.37254,0.22554 0.36094,0.47172c-0.04854,1.03041 -0.07312,2.09178 -0.07312,3.15167c0,0.45108 0.00441,0.91396 0.01336,1.37388c0.00466,0.24618 -0.16263,0.45256 -0.37405,0.45698l-0.00882,0zm0.71344,9.07764c-0.18482,0 -0.34733,-0.15626 -0.37733,-0.37738c-0.20575,-1.5095 -0.37103,-3.04111 -0.49092,-4.55356c-0.01967,-0.24618 0.13527,-0.46435 0.34569,-0.48646c0.21092,-0.02211 0.397,0.15773 0.41616,0.40391c0.11851,1.49329 0.28164,3.00573 0.48474,4.49607c0.03341,0.24323 -0.10893,0.47319 -0.31757,0.51152c-0.02042,0.00442 -0.04059,0.0059 -0.06077,0.0059" id="path312" fill-rule="nonzero" fill="#21111d"/>
  <path d="m100.688,82.36039l-0.02912,-0.00147c-0.00693,-0.00147 -0.70524,-0.06191 -1.88829,-0.08108c-0.21117,-0.00295 -0.37998,-0.20638 -0.37708,-0.45403c0.00303,-0.2447 0.17385,-0.44076 0.3825,-0.44076l0.0058,0c1.20902,0.02064 1.90557,0.08108 1.93482,0.08402c0.21054,0.01769 0.36838,0.23291 0.3525,0.47909c-0.015,0.23439 -0.18293,0.41423 -0.38111,0.41423" id="path314" fill-rule="nonzero" fill="#21111d"/>
  <path d="m105.96017,86.46435l2.16111,-2.89518c0,0 10.72059,-1.35914 10.87049,-1.44759c0.1499,-0.08845 5.66047,-3.32267 5.66047,-3.32267l-6.9256,-0.47024l-11.32107,1.90604l-0.44541,6.22964" id="path316" fill-rule="nonzero" fill="#7fc6a6"/>
  <path d="m103.84028,73.75594l20.81196,5.04297l-18.24667,1.43579l-2.5653,-6.47877l0.00001,0.00001z" id="path318" fill-rule="nonzero" fill="#b9edd6"/>
  <path d="m108.12128,83.56917l2.69086,6.89889l13.8401,-11.66915l-16.53096,4.77026z" id="path320" fill-rule="nonzero" fill="#b9edd6"/>
  <path d="m224.10567,254.28873c0,0 3.51487,10.34097 0.56606,18.16266l67.57418,0.66188l6.23674,-0.66188l5.49544,-3.9816l0,-6.09402l-1.52798,-5.03855l-4.98864,-3.04848l-73.3558,0" id="path322" fill-rule="nonzero" fill="#ffffff"/>
  <path d="m295.41156,274.12009l-73.00658,0c-0.47655,0 -0.86107,-0.44961 -0.86107,-1.00683c0,-0.55574 0.38452,-1.00535 0.86107,-1.00535l73.00658,0c4.40745,0 7.99165,-3.89021 7.99165,-8.67226c0,-4.78058 -3.5842,-8.67079 -7.99165,-8.67079l-73.00658,0c-0.47655,0 -0.86107,-0.45108 -0.86107,-1.00683c0,-0.55574 0.38452,-1.00683 0.86107,-1.00683l73.00658,0c5.35677,0 9.71379,4.79385 9.71379,10.68444c0,5.89207 -4.35702,10.68444 -9.71379,10.68444" id="path324" fill-rule="nonzero" fill="#61a3c5"/>
  <path d="m260.92477,263.65972l-35.82692,0c-0.1059,0 -0.19163,-0.10024 -0.19163,-0.22407c0,-0.12383 0.08573,-0.22259 0.19163,-0.22259l35.82692,0c0.1059,0 0.19163,0.09877 0.19163,0.22259c0,0.12383 -0.08573,0.22407 -0.19163,0.22407" id="path326" fill-rule="nonzero" fill="#aac9f8"/>
  <path d="m300.77841,263.65972l-34.80826,0c-0.10464,0 -0.19037,-0.10024 -0.19037,-0.22407c0,-0.12383 0.08573,-0.22259 0.19037,-0.22259l34.80826,0c0.1059,0 0.19163,0.09877 0.19163,0.22259c0,0.12383 -0.08573,0.22407 -0.19163,0.22407" id="path328" fill-rule="nonzero" fill="#aac9f8"/>
  <path d="m299.84296,267.66786l-17.85925,0c-0.1059,0 -0.19163,-0.10024 -0.19163,-0.22407c0,-0.12383 0.08573,-0.22259 0.19163,-0.22259l17.85925,0c0.1059,0 0.19163,0.09877 0.19163,0.22259c0,0.12383 -0.08573,0.22407 -0.19163,0.22407" id="path330" fill-rule="nonzero" fill="#aac9f8"/>
  <path d="m279.36395,267.66786l-54.2661,0c-0.1059,0 -0.19163,-0.10024 -0.19163,-0.22407c0,-0.12383 0.08573,-0.22259 0.19163,-0.22259l54.2661,0c0.1059,0 0.19163,0.09877 0.19163,0.22259c0,0.12383 -0.08573,0.22407 -0.19163,0.22407" id="path332" fill-rule="nonzero" fill="#aac9f8"/>
  <path d="m303.27084,233.11444c0,0 -3.51487,10.34097 -0.56606,18.16266l-67.57418,0.66335l-6.23674,-0.66335l-5.49544,-3.9816l0,-6.09402l1.52798,-5.03855l4.98864,-3.04848l73.3558,0" id="path334" fill-rule="nonzero" fill="#ffffff"/>
  <path d="m231.96495,252.94728l73.00658,0c0.47655,0 0.86107,-0.45108 0.86107,-1.00683c0,-0.55722 -0.38452,-1.00683 -0.86107,-1.00683l-73.00658,0c-4.40745,0 -7.99292,-3.89021 -7.99292,-8.67226c0,-4.78058 3.58547,-8.67079 7.99292,-8.67079l73.00658,0c0.47655,0 0.86107,-0.44961 0.86107,-1.00683c0,-0.55574 -0.38452,-1.00683 -0.86107,-1.00683l-73.00658,0c-5.35677,0 -9.71379,4.79385 -9.71379,10.68444c0,5.89207 4.35702,10.68591 9.71379,10.68591" id="path336" fill-rule="nonzero" fill="#f75553"/>
  <path d="m302.27865,242.48543l-35.82692,0c-0.1059,0 -0.19163,-0.10024 -0.19163,-0.22259c0,-0.12383 0.08573,-0.22407 0.19163,-0.22407l35.82692,0c0.1059,0 0.19163,0.10024 0.19163,0.22407c0,0.12235 -0.08573,0.22259 -0.19163,0.22259" id="path338" fill-rule="nonzero" fill="#aac9f8"/>
  <path d="m261.40636,242.48543l-34.80826,0c-0.1059,0 -0.19163,-0.10024 -0.19163,-0.22259c0,-0.12383 0.08573,-0.22407 0.19163,-0.22407l34.80826,0c0.10464,0 0.19037,0.10024 0.19037,0.22407c0,0.12235 -0.08573,0.22259 -0.19037,0.22259" id="path340" fill-rule="nonzero" fill="#aac9f8"/>
  <path d="m245.3928,246.49357l-17.85925,0c-0.1059,0 -0.19163,-0.10024 -0.19163,-0.22407c0,-0.12235 0.08573,-0.22259 0.19163,-0.22259l17.85925,0c0.1059,0 0.19163,0.10024 0.19163,0.22259c0,0.12383 -0.08573,0.22407 -0.19163,0.22407" id="path342" fill-rule="nonzero" fill="#aac9f8"/>
  <path d="m302.27865,246.49357l-54.2661,0c-0.1059,0 -0.19163,-0.10024 -0.19163,-0.22407c0,-0.12235 0.08573,-0.22259 0.19163,-0.22259l54.2661,0c0.1059,0 0.19163,0.10024 0.19163,0.22259c0,0.12383 -0.08573,0.22407 -0.19163,0.22407" id="path344" fill-rule="nonzero" fill="#aac9f8"/>
  <path d="m235.51512,213.17251c0,0 3.26272,9.59653 0.52572,16.85511l62.71413,0.61618l5.78793,-0.61618l5.10084,-3.69562l0,-5.65473l-1.4183,-4.67592l-4.62934,-2.82884l-68.08098,0" id="path346" fill-rule="nonzero" fill="#ffffff"/>
  <path d="m301.69242,231.57693l-67.75572,0c-0.44125,0 -0.79929,-0.41718 -0.79929,-0.93312c0,-0.51594 0.35804,-0.93459 0.79929,-0.93459l67.75572,0c4.09101,0 7.41803,-3.61013 7.41803,-8.04723c0,-4.43858 -3.32702,-8.04723 -7.41803,-8.04723l-67.75572,0c-0.44125,0 -0.79929,-0.41865 -0.79929,-0.93459c0,-0.51594 0.35804,-0.93459 0.79929,-0.93459l67.75572,0c4.97099,0 9.01535,4.4489 9.01535,9.91642c0,5.46752 -4.04436,9.91495 -9.01535,9.91495" id="path348" fill-rule="nonzero" fill="#258d8c"/>
  <path d="m269.68672,221.88605l-33.25128,0c-0.10464,0 -0.19037,-0.10024 -0.19037,-0.22407c0,-0.12383 0.08573,-0.22407 0.19037,-0.22407l33.25128,0c0.1059,0 0.19163,0.10024 0.19163,0.22407c0,0.12383 -0.08573,0.22407 -0.19163,0.22407" id="path350" fill-rule="nonzero" fill="#aac9f8"/>
  <path d="m306.6735,221.88605l-32.30449,0c-0.10464,0 -0.19037,-0.10024 -0.19037,-0.22407c0,-0.12383 0.08573,-0.22407 0.19037,-0.22407l32.30449,0c0.1059,0 0.19163,0.10024 0.19163,0.22407c0,0.12383 -0.08573,0.22407 -0.19163,0.22407" id="path352" fill-rule="nonzero" fill="#aac9f8"/>
  <path d="m305.80487,225.60526l-16.57458,0c-0.10464,0 -0.19037,-0.10024 -0.19037,-0.22407c0,-0.12383 0.08573,-0.22407 0.19037,-0.22407l16.57458,0c0.1059,0 0.19163,0.10024 0.19163,0.22407c0,0.12383 -0.08573,0.22407 -0.19163,0.22407" id="path354" fill-rule="nonzero" fill="#aac9f8"/>
  <path d="m305.80487,218.16389l-69.36943,0c-0.10464,0 -0.19037,-0.10024 -0.19037,-0.22407c0,-0.12383 0.08573,-0.22407 0.19037,-0.22407l69.36943,0c0.1059,0 0.19163,0.10024 0.19163,0.22407c0,0.12383 -0.08573,0.22407 -0.19163,0.22407" id="path356" fill-rule="nonzero" fill="#aac9f8"/>
  <path d="m304.97154,253.16987l-73.00658,0c-5.46141,0 -9.90542,-4.89261 -9.90542,-10.90703c0,-6.01589 4.44401,-10.9085 9.90542,-10.9085l73.00658,0c0.58119,0 1.05269,0.55132 1.05269,1.22942c0,0.67957 -0.47151,1.23089 -1.05269,1.23089c-0.10464,0 -0.19037,-0.10024 -0.19037,-0.22407c0,-0.12383 0.08573,-0.22259 0.19037,-0.22259c0.36939,0 0.6707,-0.35232 0.6707,-0.78423c0,-0.43044 -0.30131,-0.78276 -0.6707,-0.78276l-73.00658,0c-5.25087,0 -9.52342,4.6936 -9.52342,10.46184c0,5.76677 4.27255,10.46037 9.52342,10.46037l73.00658,0c0.36939,0 0.6707,-0.35084 0.6707,-0.78276c0,-0.43192 -0.30131,-0.78423 -0.6707,-0.78423c-0.10464,0 -0.19037,-0.09877 -0.19037,-0.22259c0,-0.12383 0.08573,-0.22407 0.19037,-0.22407c0.58119,0 1.05269,0.55132 1.05269,1.23089c0,0.6781 -0.47151,1.22942 -1.05269,1.22942" id="path358" fill-rule="nonzero" fill="#21111d"/>
  <path d="m301.69242,231.801l-67.75572,0c-0.54589,0 -0.98966,-0.51889 -0.98966,-1.15719c0,-0.63977 0.44377,-1.15866 0.98966,-1.15866c0.1059,0 0.19163,0.10024 0.19163,0.22407c0,0.12383 -0.08573,0.22407 -0.19163,0.22407c-0.33535,0 -0.60766,0.31841 -0.60766,0.71053c0,0.39064 0.27231,0.71053 0.60766,0.71053l67.75572,0c4.86635,0 8.82499,-4.34866 8.82499,-9.69235c0,-5.34517 -3.95864,-9.69235 -8.82499,-9.69235l-67.75572,0c-0.33535,0 -0.60766,0.31841 -0.60766,0.71053c0,0.39212 0.27231,0.71053 0.60766,0.71053c0.1059,0 0.19163,0.10024 0.19163,0.22407c0,0.12383 -0.08573,0.22259 -0.19163,0.22259c-0.54589,0 -0.98966,-0.51889 -0.98966,-1.15719c0,-0.63829 0.44377,-1.15866 0.98966,-1.15866l67.75572,0c5.07689,0 9.20698,4.54914 9.20698,10.14049c0,5.58987 -4.13009,10.13901 -9.20698,10.13901" id="path360" fill-rule="nonzero" fill="#21111d"/>
  <path d="m295.41156,274.34416l-73.00658,0c-0.58119,0 -1.05269,-0.55132 -1.05269,-1.23089c0,-0.6781 0.47151,-1.22942 1.05269,-1.22942c0.1059,0 0.19037,0.10024 0.19037,0.22407c0,0.12235 -0.08447,0.22259 -0.19037,0.22259c-0.36939,0 -0.6707,0.35232 -0.6707,0.78276c0,0.43192 0.30131,0.78423 0.6707,0.78423l73.00658,0c5.25087,0 9.52342,-4.6936 9.52342,-10.46184c0,-5.76824 -4.27255,-10.46037 -9.52342,-10.46037l-73.00658,0c-0.36939,0 -0.6707,0.35084 -0.6707,0.78276c0,0.43192 0.30131,0.78276 0.6707,0.78276c0.1059,0 0.19037,0.10024 0.19037,0.22407c0,0.12383 -0.08447,0.22407 -0.19037,0.22407c-0.58119,0 -1.05269,-0.5528 -1.05269,-1.23089c0,-0.6781 0.47151,-1.23089 1.05269,-1.23089l73.00658,0c5.46267,0 9.90542,4.89409 9.90542,10.9085c0,6.01442 -4.44275,10.9085 -9.90542,10.9085" id="path362" fill-rule="nonzero" fill="#21111d"/>
  <path d="m244.39683,259.42604c0,0 -2.29954,6.69694 -0.97453,11.62788l1.86838,-3.37574c0,0 1.27584,1.78958 2.05874,3.37574c0,0 1.42587,-11.01169 4.19187,-11.62788l-7.14446,0" id="path364" fill-rule="nonzero" fill="#f75553"/>
  <path d="m293.40072,238.25175c0,0 2.29954,6.69694 0.97453,11.62788l-1.86838,-3.37574c0,0 -1.27584,1.78958 -2.05748,3.37574c0,0 -1.42713,-11.01169 -4.19313,-11.62788l7.14446,0" id="path366" fill-rule="nonzero" fill="#7fc6a6"/>
  <path d="m247.37842,225.38119c0,0 -2.29954,6.69841 -0.97453,11.62935l1.86838,-3.37721c0,0 1.27584,1.79106 2.05748,3.37721c0,0 1.42713,-11.01317 4.19313,-11.62935l-7.14446,0" id="path368" fill-rule="nonzero" fill="#4cb7d8"/>
  <path d="m299.84296,259.65011l-74.74511,0c-0.1059,0 -0.19163,-0.10024 -0.19163,-0.22407c0,-0.12383 0.08573,-0.22407 0.19163,-0.22407l74.74511,0c0.1059,0 0.19163,0.10024 0.19163,0.22407c0,0.12383 -0.08573,0.22407 -0.19163,0.22407" id="path370" fill-rule="nonzero" fill="#aac9f8"/>
  <path d="m302.27865,238.47582l-74.74511,0c-0.1059,0 -0.19163,-0.10024 -0.19163,-0.22407c0,-0.12383 0.08573,-0.22407 0.19163,-0.22407l74.74511,0c0.1059,0 0.19163,0.10024 0.19163,0.22407c0,0.12383 -0.08573,0.22407 -0.19163,0.22407" id="path372" fill-rule="nonzero" fill="#aac9f8"/>
  <path d="m286.79963,225.60526l-50.36419,0c-0.10464,0 -0.19037,-0.10024 -0.19037,-0.22407c0,-0.12383 0.08573,-0.22407 0.19037,-0.22407l50.36419,0c0.1059,0 0.19037,0.10024 0.19037,0.22407c0,0.12383 -0.08447,0.22407 -0.19037,0.22407" id="path374" fill-rule="nonzero" fill="#aac9f8"/>
  <path d="m270.3965,240.13126l2.66136,1.74831l3.18204,-3.65877l0.08573,-0.5926l-0.77912,-6.65861l-6.19262,1.34735l1.04261,7.81432" id="path376" fill-rule="nonzero" fill="#fe9f73"/>
  <path d="m274.94389,242.07415l-8.53628,1.35914c-0.07942,-0.00147 -0.14372,-0.0059 -0.19163,-0.01474c-0.83711,-0.16068 -0.64422,-0.79897 -0.64422,-0.79897l3.74179,-3.6175l0.02774,-0.44666c0.04412,-0.71495 0.75012,-1.07758 1.35527,-0.69579l1.57211,0.99356c0,0 3.69641,0.06191 4.05697,-1.225l0.33409,3.13841c0,0 0.39334,0.95523 -1.71583,1.30755" id="path378" fill-rule="nonzero" fill="#f75553"/>
  <path d="m259.36653,240.55876l2.66136,1.74831l3.18204,-3.66025l0.08573,-0.5926l-0.77912,-6.65861l-6.19262,1.34882l1.04261,7.81432" id="path380" fill-rule="nonzero" fill="#fe9f73"/>
  <path d="m263.91392,242.50017l-8.53628,1.35914c-0.07942,0 -0.14372,-0.0059 -0.19163,-0.01474c-0.83711,-0.15921 -0.64422,-0.79897 -0.64422,-0.79897l3.74179,-3.6175l0.02774,-0.44518c0.04412,-0.71642 0.75012,-1.07906 1.35527,-0.69726l1.57211,0.99356c0,0 3.69767,0.06191 4.05697,-1.225l0.33409,3.13988c0,0 0.39334,0.95523 -1.71583,1.30607" id="path382" fill-rule="nonzero" fill="#f75553"/>
  <path d="m280.24267,213.401c0,0 10.64671,0.58523 13.60435,-0.18279c2.95637,-0.76802 3.68506,-11.55859 0.32779,-18.17003c-3.35728,-6.61144 -15.10333,13.68722 -15.10333,13.68722l1.1712,4.6656" id="path384" fill-rule="nonzero" fill="#49263e"/>
  <path d="m273.6567,197.37435c0,0 -14.82724,2.69764 -15.25714,4.70687c-0.4299,2.0107 -1.66162,23.38105 -0.74004,32.4985c0,0 5.64799,0.45403 8.3497,-0.31104l0.65809,-22.23124l4.45788,-0.59849l10.21555,-14.35795l-7.68404,0.29335" id="path386" fill-rule="nonzero" fill="#3a1f33"/>
  <path d="m280.86924,198.6303c0,0 -11.48131,3.78702 -11.91121,5.79772c-0.42864,2.0107 -1.65279,21.08289 -0.73121,30.20034c0,0 6.07285,0.40538 8.77456,-0.35969l0.72869,-20.97086l2.61976,0.10614l6.35273,-13.06809l-5.83332,-1.70556" id="path388" fill-rule="nonzero" fill="#49263e"/>
  <path d="m287.98722,173.05133c0,0 5.07437,0.10024 6.25313,0.91396c1.18003,0.81372 6.58344,11.22249 7.7496,15.63896c0,0 -3.04966,3.12219 -6.97804,3.24159l-0.94553,-2.08146l0.54085,4.26169l-10.29245,3.56885c-3.49217,1.21173 -7.22514,1.07021 -10.64293,-0.40391l-1.06908,-0.4614c0,0 0.01639,-20.25444 3.11018,-22.39486c2.75718,-1.90604 8.72791,-2.90992 12.27429,-2.28342" id="path390" fill-rule="nonzero" fill="#febac7"/>
  <path d="m281.61054,163.09954l0,5.73433c0,0 -0.06934,1.93847 1.38048,2.18023l-0.26979,2.58708c-0.10086,0.96113 0.39082,1.88098 1.18003,2.17286c0.38578,0.14299 0.8472,0.24765 1.36913,0.24765c1.65784,0 2.55672,-1.45348 2.69414,-2.18023c0.13868,-0.72674 -0.2761,-4.19977 -0.2761,-4.19977l0.05043,-1.70703l-0.18911,-6.61144l-5.93922,1.77632" id="path392" fill-rule="nonzero" fill="#fe9f73"/>
  <path d="m285.61204,165.9667c0.01765,0 0.0353,-0.00737 0.04791,-0.02211c0.02774,-0.03096 0.029,-0.08255 0.00252,-0.11498c-0.01009,-0.01179 -0.9594,-1.14687 -1.82803,-0.3302c-0.029,0.02801 -0.03404,0.0796 -0.01009,0.11498c0.02395,0.0339 0.06682,0.0398 0.09707,0.01179c0.76903,-0.72527 1.60615,0.27271 1.64145,0.31546c0.01387,0.01622 0.03152,0.02506 0.04917,0.02506" id="path394" fill-rule="nonzero" fill="#fecc86"/>
  <path d="m282.76535,165.48172c0.01891,0 0.03782,-0.00884 0.05169,-0.02801c0.02521,-0.03243 0.02269,-0.08402 -0.0063,-0.11351c-0.02774,-0.02801 -0.68709,-0.68694 -1.10312,-0.26976c-0.029,0.02948 -0.03278,0.08108 -0.00756,0.11498c0.02395,0.0339 0.06808,0.03685 0.09707,0.00884c0.32652,-0.32726 0.91654,0.26239 0.92284,0.26829c0.01261,0.01327 0.029,0.01916 0.04539,0.01916" id="path396" fill-rule="nonzero" fill="#fecc86"/>
  <path d="m284.21517,166.29248c0,0.13415 0.09329,0.24323 0.20802,0.24323c0.11472,0 0.20676,-0.10909 0.20676,-0.24323c0,-0.13267 -0.09203,-0.24176 -0.20676,-0.24176c-0.11472,0 -0.20802,0.10909 -0.20802,0.24176" id="path398" fill-rule="nonzero" fill="#000000"/>
  <path d="m282.01271,166.05073c0,0.13415 0.09329,0.24176 0.20802,0.24176c0.11346,0 0.20676,-0.10761 0.20676,-0.24176c0,-0.13415 -0.09329,-0.24176 -0.20676,-0.24176c-0.11472,0 -0.20802,0.10761 -0.20802,0.24176" id="path400" fill-rule="nonzero" fill="#000000"/>
  <path d="m287.35686,161.64163l-1.15607,1.91488c0,0 -3.50352,1.59058 -5.29877,-0.29482c-1.79651,-1.88393 -1.24306,-2.78904 -0.71735,-3.73248c0.25971,-0.46435 1.49899,-1.41221 3.01815,-0.62355c0.82955,0.43192 1.44225,-0.85352 2.40922,-0.20785c0.96697,0.64567 2.10791,1.766 1.98058,2.20823c-0.12733,0.44224 -0.23575,0.73559 -0.23575,0.73559" id="path402" fill-rule="nonzero" fill="#fecc86"/>
  <path d="m287.28753,160.83381c0,0 1.5948,-0.08992 2.03983,1.70556c0.44503,1.79401 -0.15381,2.7345 -0.16894,3.2696c-0.01513,0.53511 0.29501,4.14228 -1.8709,3.87252l-0.58497,-5.9584l0.75391,-2.37186l-0.16894,-0.51742" id="path404" fill-rule="nonzero" fill="#fecc86"/>
  <path d="m285.92722,166.20846c0,0.8034 0.55597,1.45496 1.24306,1.45496c0.68709,0 1.24306,-0.65156 1.24306,-1.45496c0,-0.80192 -0.55597,-1.45348 -1.24306,-1.45348c-0.68709,0 -1.24306,0.65156 -1.24306,1.45348" id="path406" fill-rule="nonzero" fill="#fe9f73"/>
  <path d="m287.26231,167.1003c0.25845,0 0.43116,-0.22701 0.4879,-0.45403c0.06682,-0.26829 -0.01009,-0.52921 -0.19667,-0.66483c-0.27484,-0.19901 -0.52446,-0.07076 -0.65305,0.02653c0.05421,-0.1651 0.13868,-0.28451 0.25088,-0.35674c0.24584,-0.15773 0.54967,-0.04275 0.55219,-0.04275c0.01765,0.00737 0.03782,-0.00442 0.04412,-0.02506c0.0063,-0.02064 -0.00378,-0.04422 -0.02143,-0.05159c-0.01387,-0.00442 -0.33535,-0.12677 -0.60766,0.04717c-0.15633,0.10171 -0.26349,0.28008 -0.31644,0.53068l-0.03026,0.14004l0.08825,-0.10171c0.01261,-0.01474 0.30761,-0.35084 0.65683,-0.09729c0.19415,0.14004 0.21054,0.39654 0.16641,0.57196c-0.04539,0.18427 -0.1828,0.39654 -0.42108,0.39654l-0.0063,0c-0.01891,0 -0.0353,0.01769 -0.0353,0.0398c0,0.02211 0.01513,0.04128 0.03404,0.04128l0.00756,0" id="path408" fill-rule="nonzero" fill="#f07162"/>
  <path d="m286.3546,169.3675c0,0 -0.09707,3.24454 -3.56277,3.55411l0.19919,-1.90751c0,0 2.24785,0.52774 3.36358,-1.64659" id="path410" fill-rule="nonzero" fill="#f07162"/>
  <path d="m294.20631,191.0253c4.28516,-0.77834 6.8255,-3.77817 6.85071,-3.80913l-0.14876,-0.16805c-0.02395,0.02948 -2.52016,2.97183 -6.73346,3.73837l0.03152,0.23881" id="path412" fill-rule="nonzero" fill="#21111d"/>
  <path d="m273.35666,234.87601c2.68406,0 3.64094,-0.47319 3.68632,-0.49678l0.05925,-0.02948l0.70474,-21.09469l-1.10817,0.61176l0.08825,0.21817l0.79929,-0.44076l-0.68583,20.53894c-0.28996,0.11793 -1.68179,0.5867 -4.96973,0.40981l-0.01009,0.24176c0.52572,0.02801 1.00353,0.04128 1.43595,0.04128" id="path414" fill-rule="nonzero" fill="#21111d"/>
  <path d="m275.8743,230.32687c0.28618,-1.29133 0.36813,-13.89213 0.37191,-14.42871l-0.20802,-0.00147c0,0.1312 -0.08447,13.10642 -0.36435,14.36974l0.20045,0.06044" id="path416" fill-rule="nonzero" fill="#21111d"/>
  <path d="m265.20489,212.51211c1.36031,-0.51447 3.23499,-0.5926 3.2539,-0.5926l-0.00756,-0.24323c-0.01891,0.00147 -1.92133,0.0796 -3.31063,0.60586l0.0643,0.22996" id="path418" fill-rule="nonzero" fill="#21111d"/>
  <path d="m262.14136,234.83032c2.29324,0 3.87669,-0.43929 3.89182,-0.44371l0.0769,-0.02211l0.6644,-22.47889l-0.84846,0.80045l0.12985,0.18721l0.49672,-0.46582l-0.64422,21.76394c-0.35048,0.08845 -1.88098,0.44076 -3.96872,0.4157l-0.00126,0.24176c0.06808,0.00147 0.1349,0.00147 0.20297,0.00147" id="path420" fill-rule="nonzero" fill="#21111d"/>
  <path d="m265.02839,230.79564c0.28618,-1.95174 0.01387,-15.15987 0.00252,-15.72151l-0.20802,0.0059c0.00378,0.13709 0.28366,13.74619 0.00126,15.67434l0.20424,0.04128" id="path422" fill-rule="nonzero" fill="#21111d"/>
  <path d="m279.2341,202.88904l4.33811,-2.78609l-5.60134,-1.2132l1.26323,3.99929z" id="path424" fill-rule="nonzero" fill="#5089a0"/>
  <path d="m279.07146,202.57063c0.07312,-0.05454 4.19439,-2.61362 4.19439,-2.61362l0.0643,0.30072l-4.09605,2.63131l-0.16263,-0.31841" id="path426" fill-rule="nonzero" fill="#4cb7d8"/>
  <path d="m275.27168,199.67103l1.17372,-2.13305l0,0c0.64548,-1.22057 1.68935,-2.82294 2.77609,-2.96446c1.77508,-0.23291 12.58821,-0.7518 16.01987,-1.24563l-0.22945,-0.48204c0.03908,0.01032 2.80508,-0.54985 2.80508,-0.54985l1.78013,-0.98766l1.6011,-0.80929c0.44125,2.01365 1.65532,5.32305 0.41099,7.62858c-2.29954,4.26021 -19.88521,2.16254 -21.44598,1.60532l-1.43595,1.81907l-0.29375,0.52774c-0.13868,0.24913 -0.4236,0.31988 -0.63792,0.15773c-0.21306,-0.16215 -0.27357,-0.49678 -0.1349,-0.74591l-0.12229,0.22112c-0.13868,0.24913 -0.42486,0.31988 -0.63792,0.15773c-0.21306,-0.16215 -0.27357,-0.49678 -0.1349,-0.74591c-0.13868,0.24913 -0.42486,0.31988 -0.63792,0.15773c-0.21306,-0.16215 -0.27357,-0.49531 -0.1349,-0.74591l0.12355,-0.21964c-0.13994,0.24913 -0.42486,0.31988 -0.63792,0.15773l-0.02521,-0.02064l-0.00504,-0.0059l-0.01261,-0.01032l-0.00126,-0.00147l-0.00126,-0.00147c-0.029,-0.02801 -0.05295,-0.05896 -0.07438,-0.09287c-0.25088,-0.35526 -0.08699,-0.67073 -0.08699,-0.67073" id="path428" fill-rule="nonzero" fill="#fe9f73"/>
  <path d="m294.95518,193.01095l0.06682,-0.00147c3.49343,-0.09582 7.00452,-3.2357 7.03982,-3.26813l0.0643,-0.05749l-2.21507,-5.74023l-0.18911,0.10024l2.14825,5.56334c-0.49042,0.42307 -3.64346,3.03669 -6.78641,3.15757l-0.95184,-2.26278l-0.18532,0.10761l1.00857,2.40134" id="path430" fill-rule="nonzero" fill="#21111d"/>
  <path d="m296.4756,195.30616c0.01891,0.00442 0.04034,0 0.05799,-0.01622c0.029,-0.02653 0.0353,-0.07813 0.01135,-0.11351l-1.25819,-1.89425c-0.02395,-0.03538 -0.06682,-0.04128 -0.09707,-0.01474c-0.03026,0.02801 -0.0353,0.07813 -0.01261,0.11351l1.25945,1.89572c0.01009,0.01474 0.02395,0.02506 0.03908,0.02948" id="path432" fill-rule="nonzero" fill="#f07162"/>
  <path d="m275.91338,200.62479c0.02647,0.00737 0.05547,-0.00442 0.07186,-0.03096l1.64649,-2.64458c0.02269,-0.03538 0.01639,-0.08697 -0.01513,-0.11203c-0.03026,-0.02653 -0.07312,-0.01916 -0.09581,0.01769l-1.64775,2.64458c-0.02269,0.03538 -0.01513,0.0855 0.01513,0.11203l0.02521,0.01327" id="path434" fill-rule="nonzero" fill="#f07162"/>
  <path d="m276.63703,201.3987c0.02774,0.00737 0.05673,-0.00442 0.07312,-0.0339l1.57211,-2.72565c0.02143,-0.03685 0.01261,-0.08697 -0.01891,-0.11203c-0.03152,-0.02506 -0.07438,-0.01474 -0.09581,0.02211l-1.57211,2.72565c-0.02143,0.03685 -0.01261,0.08697 0.01891,0.11203l0.02269,0.01179" id="path436" fill-rule="nonzero" fill="#f07162"/>
  <path d="m277.5107,201.89253c0.02774,0.00737 0.05673,-0.0059 0.07312,-0.0339l1.30736,-2.31142c0.02143,-0.03685 0.01261,-0.08697 -0.01891,-0.11203c-0.03278,-0.02506 -0.07564,-0.01474 -0.09581,0.02211l-1.30862,2.31142c-0.02017,0.03685 -0.01135,0.08697 0.02017,0.11203l0.02269,0.01179" id="path438" fill-rule="nonzero" fill="#f07162"/>
  <path d="m284.80266,213.62654c-5.25087,0 -8.42408,-0.41275 -8.47199,-0.41865l0.02395,-0.24028c0.0706,0.00884 7.19236,0.93459 17.8126,-0.00147l0.01513,0.24176c-3.56403,0.31399 -6.73472,0.41865 -9.3797,0.41865" id="path440" fill-rule="nonzero" fill="#21111d"/>
  <path d="m277.3695,191.43216l-0.20676,-0.00884l0.27862,-10.28642l0.20676,0.00737l-0.27862,10.2879" id="path442" fill-rule="nonzero" fill="#21111d"/>
  <path d="m261.36854,185.66982l1.86838,15.67139l15.99718,1.54783l-0.54463,-17.05117l-17.32093,-0.16805" id="path444" fill-rule="nonzero" fill="#4cb7d8"/>
  <path d="m294.92744,193.05812l-4.1137,-11.07066l0.19037,-0.09582l4.11244,11.06918l-0.18911,0.09729" id="path446" fill-rule="nonzero" fill="#21111d"/>
  <path d="m294.30213,193.45171l-0.45764,-3.31825l0.20424,-0.03833l0.4589,3.31825l-0.2055,0.03833" id="path448" fill-rule="nonzero" fill="#21111d"/>
  <path d="m283.48522,167.92729c0.01387,0 0.02774,-0.01032 0.03278,-0.02801c0.00504,-0.02064 -0.00378,-0.04275 -0.02269,-0.05012l-0.69213,-0.26829l0.21936,-1.90457c0.00252,-0.02211 -0.01135,-0.04275 -0.03026,-0.0457c-0.01891,-0.00295 -0.03656,0.01327 -0.03908,0.0339l-0.22567,1.97238l0.74634,0.28893l0.01135,0.00147" id="path450" fill-rule="nonzero" fill="#f07162"/>
  <path d="m284.02102,168.71447c-0.02143,-0.00442 -1.36787,-0.04275 -1.36787,-0.04275c0,0 0.16894,0.65156 0.66944,0.6663c0.5005,0.01622 0.69843,-0.62355 0.69843,-0.62355" id="path452" fill-rule="nonzero" fill="#fbfdfc"/>
  <path d="m270.33725,193.01095c0,0.39359 -0.27357,0.71348 -0.61018,0.71348c-0.33661,0 -0.60892,-0.31988 -0.60892,-0.71348c0,-0.39212 0.27231,-0.712 0.60892,-0.712c0.33661,0 0.61018,0.31988 0.61018,0.712" id="path454" fill-rule="nonzero" fill="#e2f2f1"/>
  <path d="m170.29091,56.75637c0,1.87214 -1.29853,3.39048 -2.89964,3.39048c-1.6011,0 -2.89964,-1.51835 -2.89964,-3.39048c0,-1.87214 1.29853,-3.39048 2.89964,-3.39048c1.6011,0 2.89964,1.51835 2.89964,3.39048" id="path456" fill-rule="nonzero" fill="#fecc86"/>
  <path d="m175.96411,64.71663c0,0.81372 -0.5648,1.47412 -1.26071,1.47412c-0.69591,0 -1.26071,-0.66041 -1.26071,-1.47412c0,-0.81372 0.5648,-1.47412 1.26071,-1.47412c0.69591,0 1.26071,0.66041 1.26071,1.47412" id="path458" fill-rule="nonzero" fill="#fecc86"/>
  <path d="m95.53067,102.15933c0,1.87214 -1.29816,3.39048 -2.89964,3.39048c-1.60148,0 -2.89964,-1.51835 -2.89964,-3.39048c0,-1.87214 1.29816,-3.39048 2.89964,-3.39048c1.60148,0 2.89964,1.51835 2.89964,3.39048" id="path460" fill-rule="nonzero" fill="#fecc86"/>
  <path d="m70.82071,149.33123c0,1.87214 -1.29816,3.39048 -2.89964,3.39048c-1.60148,0 -2.89964,-1.51835 -2.89964,-3.39048c0,-1.87214 1.29816,-3.39048 2.89964,-3.39048c1.60148,0 2.89964,1.51835 2.89964,3.39048" id="path462" fill-rule="nonzero" fill="#fecc86"/>
  <path d="m87.0839,114.98419c0,0.81372 -0.56442,1.47412 -1.26071,1.47412c-0.69629,0 -1.26071,-0.66041 -1.26071,-1.47412c0,-0.81372 0.56442,-1.47412 1.26071,-1.47412c0.69629,0 1.26071,0.66041 1.26071,1.47412" id="path464" fill-rule="nonzero" fill="#fecc86"/>
  <path d="m49.26254,140.92874c0,0.81372 -0.56442,1.47412 -1.26071,1.47412c-0.69629,0 -1.26071,-0.66041 -1.26071,-1.47412c0,-0.81372 0.56442,-1.47412 1.26071,-1.47412c0.69629,0 1.26071,0.66041 1.26071,1.47412" id="path466" fill-rule="nonzero" fill="#fecc86"/>
  <path d="m192.60552,109.82476c0,1.87214 -1.29853,3.39048 -2.89964,3.39048c-1.6011,0 -2.89964,-1.51835 -2.89964,-3.39048c0,-1.87214 1.29853,-3.39048 2.89964,-3.39048c1.6011,0 2.89964,1.51835 2.89964,3.39048" id="path468" fill-rule="nonzero" fill="#fecc86"/>
  <path d="m179.87232,115.42643c0,0.81372 -0.5648,1.47412 -1.26071,1.47412c-0.69591,0 -1.26071,-0.66041 -1.26071,-1.47412c0,-0.81372 0.5648,-1.47412 1.26071,-1.47412c0.69591,0 1.26071,0.66041 1.26071,1.47412" id="path470" fill-rule="nonzero" fill="#fecc86"/>
  <path d="m201.93479,125.89269c0,1.46528 -1.01613,2.65342 -2.26928,2.65342c-1.25315,0 -2.26928,-1.18814 -2.26928,-2.65342c0,-1.46528 1.01613,-2.65342 2.26928,-2.65342c1.25315,0 2.26928,1.18814 2.26928,2.65342" id="path472" fill-rule="nonzero" fill="#fecc86"/>
  <path d="m316.28139,158.02856c0,1.87214 -1.29853,3.39048 -2.89964,3.39048c-1.6011,0 -2.89964,-1.51835 -2.89964,-3.39048c0,-1.87214 1.29853,-3.39048 2.89964,-3.39048c1.6011,0 2.89964,1.51835 2.89964,3.39048" id="path474" fill-rule="nonzero" fill="#fecc86"/>
  <path d="m260.17969,174.83355c0,1.87214 -1.29853,3.39048 -2.89964,3.39048c-1.6011,0 -2.89964,-1.51835 -2.89964,-3.39048c0,-1.87214 1.29853,-3.39048 2.89964,-3.39048c1.6011,0 2.89964,1.51835 2.89964,3.39048" id="path476" fill-rule="nonzero" fill="#fecc86"/>
  <path d="m303.54819,163.63022c0,0.81372 -0.5648,1.47412 -1.26071,1.47412c-0.69591,0 -1.26071,-0.66041 -1.26071,-1.47412c0,-0.81372 0.5648,-1.47412 1.26071,-1.47412c0.69591,0 1.26071,0.66041 1.26071,1.47412" id="path478" fill-rule="nonzero" fill="#fecc86"/>
  <path d="m265.72682,159.7975c0,0.81372 -0.5648,1.47412 -1.26071,1.47412c-0.69591,0 -1.26071,-0.66041 -1.26071,-1.47412c0,-0.81372 0.5648,-1.47412 1.26071,-1.47412c0.69591,0 1.26071,0.66041 1.26071,1.47412" id="path480" fill-rule="nonzero" fill="#fecc86"/>
  <path d="m325.61066,174.09649c0,1.46528 -1.01613,2.65342 -2.26928,2.65342c-1.25315,0 -2.26928,-1.18814 -2.26928,-2.65342c0,-1.46528 1.01613,-2.65342 2.26928,-2.65342c1.25315,0 2.26928,1.18814 2.26928,2.65342" id="path482" fill-rule="nonzero" fill="#fecc86"/>
  <path d="m181.00696,147.85711l0,69.87339l44.50314,0l0,-58.37524l-9.58141,-11.49815l-34.92173,0" id="path484" fill-rule="nonzero" fill="#ffffff"/>
  <path d="m225.5101,159.37738l-9.52594,-11.52026l0,11.52026l9.52594,0z" id="path486" fill-rule="nonzero" fill="#aac9f8"/>
  <path d="m211.64227,156.55443l-19.41497,0c-0.27862,0 -0.50428,-0.26387 -0.50428,-0.58965c0,-0.32578 0.22567,-0.58965 0.50428,-0.58965l19.41497,0c0.27862,0 0.50428,0.26387 0.50428,0.58965c0,0.32578 -0.22567,0.58965 -0.50428,0.58965" id="path488" fill-rule="nonzero" fill="#aac9f8"/>
  <path d="m214.28977,161.12421l-24.70996,0c-0.27862,0 -0.50428,-0.26387 -0.50428,-0.58965c0,-0.32578 0.22567,-0.58965 0.50428,-0.58965l24.70996,0c0.27862,0 0.50428,0.26387 0.50428,0.58965c0,0.32578 -0.22567,0.58965 -0.50428,0.58965" id="path490" fill-rule="nonzero" fill="#aac9f8"/>
  <path d="m220.84547,172.03272l-35.80423,0c-0.27862,0 -0.50428,-0.26387 -0.50428,-0.58965c0,-0.32578 0.22567,-0.58965 0.50428,-0.58965l35.80423,0c0.27862,0 0.50428,0.26387 0.50428,0.58965c0,0.32578 -0.22567,0.58965 -0.50428,0.58965" id="path492" fill-rule="nonzero" fill="#aac9f8"/>
  <path d="m220.84547,177.19214l-35.80423,0c-0.27862,0 -0.50428,-0.26387 -0.50428,-0.58965c0,-0.32578 0.22567,-0.58965 0.50428,-0.58965l35.80423,0c0.27862,0 0.50428,0.26387 0.50428,0.58965c0,0.32578 -0.22567,0.58965 -0.50428,0.58965" id="path494" fill-rule="nonzero" fill="#aac9f8"/>
  <path d="m220.84547,182.35157l-35.80423,0c-0.27862,0 -0.50428,-0.26387 -0.50428,-0.58965c0,-0.32578 0.22567,-0.58965 0.50428,-0.58965l35.80423,0c0.27862,0 0.50428,0.26387 0.50428,0.58965c0,0.32578 -0.22567,0.58965 -0.50428,0.58965" id="path496" fill-rule="nonzero" fill="#aac9f8"/>
  <path d="m220.84547,192.67042l-35.80423,0c-0.27862,0 -0.50428,-0.26387 -0.50428,-0.58965c0,-0.32578 0.22567,-0.58965 0.50428,-0.58965l35.80423,0c0.27862,0 0.50428,0.26387 0.50428,0.58965c0,0.32578 -0.22567,0.58965 -0.50428,0.58965" id="path498" fill-rule="nonzero" fill="#aac9f8"/>
  <path d="m220.84547,197.82985l-35.80423,0c-0.27862,0 -0.50428,-0.26387 -0.50428,-0.58965c0,-0.32578 0.22567,-0.58965 0.50428,-0.58965l35.80423,0c0.27862,0 0.50428,0.26387 0.50428,0.58965c0,0.32578 -0.22567,0.58965 -0.50428,0.58965" id="path500" fill-rule="nonzero" fill="#aac9f8"/>
  <path d="m220.84547,211.09695l-35.80423,0c-0.27862,0 -0.50428,-0.26387 -0.50428,-0.58965c0,-0.32578 0.22567,-0.58965 0.50428,-0.58965l35.80423,0c0.27862,0 0.50428,0.26387 0.50428,0.58965c0,0.32578 -0.22567,0.58965 -0.50428,0.58965" id="path502" fill-rule="nonzero" fill="#aac9f8"/>
  <path d="m136.66771,273.812l0.1349,0.22996l0.08195,0.21817l0.52446,0l-47.74393,-80.10822c-0.06039,-0.10171 -0.17965,-0.12677 -0.26626,-0.05602c-0.08674,0.07076 -0.10804,0.20933 -0.04765,0.31104l47.32411,79.40506l-0.00756,0" id="path504" fill-rule="nonzero" fill="#21111d"/>
  <path d="m338.84813,274.04196l-328.54161,0l0,1.1793l328.54161,0l0,-1.1793" id="path506" fill-rule="nonzero" fill="#21111d"/>
 </g>
</svg>